<?xml version="1.0" encoding="UTF-8"?>
<svg id="_レイヤー_2" data-name="レイヤー 2" xmlns="http://www.w3.org/2000/svg" viewBox="0 0 72.11 107.95">
  <defs>
    <style>
      .cls-1 {
        fill: #404040;
      }

      .cls-2 {
        stroke-width: .42px;
      }

      .cls-2, .cls-3 {
        fill: none;
        stroke: #404040;
        stroke-miterlimit: 10;
      }

      .cls-3 {
        stroke-width: .35px;
      }
    </style>
  </defs>
  <g id="text">
    <g>
      <path class="cls-1" d="M36.18,48.05c-2.12.57-4.24.9-6.27.9-5.82,0-10.54-3.14-10.54-6.99,0-4.75,6.48-8.6,14.46-8.6,4.51,0,9.5,1.4,13.65,3.85,2-.81,3.97-1.25,5.73-1.25,1.13,0,1.82.12,1.82.81s-1.25,2.06-3.29,3.61c.93.87,1.73,1.82,2.45,2.81l-.18.12c-.72-.99-1.52-1.91-2.45-2.78-3.17,2.39-8.09,5.23-13.26,6.93-1.67,2.12-2.78,4.33-2.78,6.45,0,5.32,5.56,9.62,12.39,9.62s12.13-3.79,12.13-8.45c0-4.03-4.63-7.32-10.36-7.32-3.97,0-7.88,1.55-10.27,5.23l-.18-.12c2.33-3.67,6.42-5.35,10.45-5.35,5.85,0,10.6,3.37,10.6,7.56,0,4.81-5.53,8.69-12.36,8.69s-12.84-4.6-12.84-10.24c0-1.91.39-3.76,1.11-5.47ZM36.29,47.81c2.06-4.81,6.45-8.6,10.9-10.48-4.09-2.39-8.99-3.73-13.35-3.73-7.85,0-14.25,3.76-14.25,8.39,0,3.7,4.63,6.72,10.3,6.72,2.06,0,4.24-.33,6.39-.9ZM38.56,47.13c5.05-1.7,9.8-4.48,12.81-6.75-.69-.66-1.43-1.25-2.21-1.82-3.46,1.94-7.77,5.11-10.6,8.57ZM49.35,38.46c.78.54,1.52,1.13,2.21,1.76,1.97-1.49,3.17-2.78,3.17-3.37,0-.27-.15-.33-.54-.33-.87,0-2.66.72-4.84,1.94Z"/>
      <g>
        <path class="cls-1" d="M18.63,63.89c-.36,0-.57-.12-.57-.33,0-.72,1.85-1.55,1.85-1.91,0-.09-.12-.18-.33-.18-.87,0-3.17.9-6.03,2.48l-.09-.15c.87-.72,1.64-1.4,2.39-2.09-1.11.51-2.24.96-3.4,1.31-.06,0-.12-.03-.12-.09s.03-.12.12-.15c1.37-.45,2.72-1.02,4.03-1.67,1.58-1.49,3.14-3.14,5.56-5.47,4.03-3.88,5.7-5.14,6.72-5.14.42,0,.57.18.57.6,0,1.08-5.7,6.81-12.75,10.24-.66.63-1.31,1.22-2.06,1.85,2.36-1.31,4.3-1.97,5.14-1.97.36,0,.57.12.57.33,0,.63-1.85,1.49-1.85,1.91,0,.09.12.18.33.18.69,0,2-.3,3.46-.87.06,0,.12.03.12.09s-.03.12-.12.15c-1.4.57-2.72.87-3.52.87ZM17.26,60.72c6.63-3.46,11.83-8.63,11.83-9.62,0-.27-.12-.36-.36-.36-.87,0-2.33,1.11-6.54,5.11-2.09,2-3.52,3.52-4.93,4.87Z"/>
        <path class="cls-1" d="M27.5,62.87c0,.06-.03.12-.12.15-1.46.48-2.45.78-3.2.78-.36,0-.57-.12-.57-.36,0-.3.18-.72,1.08-1.37-.96.39-1.82.72-2.54.96-.06,0-.12-.03-.12-.09s.03-.12.12-.15c1.34-.48,2.06-.72,3.88-1.49l.09.15c-1.88,1.16-2.21,1.64-2.21,1.94,0,.12.12.18.33.18.63,0,1.61-.27,3.14-.78.06,0,.12.03.12.09ZM31.23,55.91c.24,0,.42.18.42.42,0,.21-.18.39-.42.39-.21,0-.39-.18-.39-.39,0-.24.18-.42.39-.42Z"/>
        <path class="cls-1" d="M35.71,62.87c0,.06-.03.12-.12.15-1.43.57-2.12.78-2.6.78-.36,0-.57-.12-.57-.33,0-.27.12-.54.6-.96-1.76.9-2.78,1.22-3.58,1.22-.39,0-.69-.12-.69-.42s.39-.75,1.02-1.13c-1.11.42-1.7.6-2.39.84-.06,0-.12-.03-.12-.09s.03-.12.12-.15c1.22-.42,2.57-.87,3.64-1.19.81-.24,1.7-.45,2.66-.45.36,0,.69.06,1.02.24l.15-.09.09.15c-1.88,1.16-2.21,1.64-2.21,1.94,0,.09.12.18.33.18.36,0,1.05-.21,2.54-.78.06,0,.12.03.12.09ZM34.43,61.53c-.18-.09-.48-.15-.75-.15-2.18,0-4.63,1.28-4.63,1.94,0,.15.18.18.39.18.99,0,2.27-.48,4.99-1.97Z"/>
        <path class="cls-1" d="M44.67,62.87c0,.06-.03.12-.12.15-1.46.48-2.93,1.05-4.3,1.67-1.61,1.43-3.02,2.75-5.38,4.9-3.79,3.43-6.24,4.9-6.93,4.9-.42,0-.57-.18-.57-.6,0-1.55,5.61-6.12,12.75-9.38.84-.72,1.7-1.49,2.66-2.33-2.18,1.28-3.64,1.73-4.42,1.73-.36,0-.57-.12-.57-.33,0-.69,1.97-1.46,1.97-1.91,0-.15-.12-.21-.33-.21-.45,0-2.42,1.08-3.85,1.55-.06,0-.12-.03-.12-.09s.03-.12.12-.15c1.4-.48,3.34-1.55,3.91-1.55.36,0,.57.09.57.36,0,.72-1.97,1.55-1.97,1.94,0,.12.12.15.33.15.81,0,2.66-.66,5.5-2.45l.12.18c-1.34,1.13-2.36,2-3.29,2.81,1.22-.51,2.51-.99,3.79-1.43.06,0,.12.03.12.09ZM39.57,65.02c-6.66,3.14-11.95,7.53-11.95,8.84,0,.24.12.33.36.33.57,0,3.02-1.4,6.78-4.81,2-1.79,3.43-3.11,4.81-4.36Z"/>
        <path class="cls-1" d="M52.89,62.87c0,.06-.03.12-.12.15-1.43.57-2.12.78-2.6.78-.36,0-.57-.12-.57-.33,0-.27.12-.54.6-.96-1.76.9-2.78,1.22-3.58,1.22-.39,0-.69-.12-.69-.42s.39-.75,1.02-1.13c-1.11.42-1.7.6-2.39.84-.06,0-.12-.03-.12-.09s.03-.12.12-.15c1.22-.42,2.57-.87,3.64-1.19.81-.24,1.7-.45,2.66-.45.36,0,.69.06,1.02.24l.15-.09.09.15c-1.88,1.16-2.21,1.64-2.21,1.94,0,.09.12.18.33.18.36,0,1.05-.21,2.54-.78.06,0,.12.03.12.09ZM51.6,61.53c-.18-.09-.48-.15-.75-.15-2.18,0-4.63,1.28-4.63,1.94,0,.15.18.18.39.18.99,0,2.27-.48,4.99-1.97Z"/>
      </g>
      <rect class="cls-3" x="6.11" y="9.1" width="59.73" height="89.6" rx="29.87" ry="29.87"/>
      <rect class="cls-2" x=".21" y=".21" width="71.68" height="107.52" rx="35.84" ry="35.84"/>
    </g>
  </g>
</svg>