<?xml version="1.0" encoding="UTF-8"?>
<svg id="_レイヤー_2" data-name="レイヤー 2" xmlns="http://www.w3.org/2000/svg" viewBox="0 0 355.07 99.14">
  <defs>
    <style>
      .cls-1 {
        fill: #fff;
      }

      .cls-2 {
        fill: #be6763;
      }
    </style>
  </defs>
  <g id="text">
    <g>
      <g>
        <path class="cls-2" d="M100.81,60.56c-.32-.48-.48-1.04-.48-1.6,0-1.2.48-2.56.88-3.36v-5.76c-.72-2.48-2.4-4-2.72-6.88-1.6-2.56-4.88-4.56-5.36-6.56-.56-.72-1.92-.56-1.92-1.92-.24.08-.4.08-.56.08-1.12,0-1.44-.8-2.56-.88-2.08.24-2.64,2-3.84,3.12-1.28.8-2.24,2.08-3.04,3.44-2,1.04-3.76,2.4-4.64,4.64.48,3.12,1.76,5.44,3.52,7.28.48.96,3.04.16,3.04,1.92,0,.24-.88,1.28-1.12,1.28-1.36,0-2.56-1.36-3.84-1.36-.08,0-.24.08-.4.08-.48-.96-1.36-1.52-2.32-1.92-.64-1.68-1.76-2.88-2.32-4.64-2.16,0-2.24,2.08-3.84,2.72-.32.4-1.28,1.92-1.6,1.92-.16,0-.4-.08-.56-.08-.4,0-.32,1.04-.88,1.6-1.04.96-3.36,3.12-4,3.12-.4,0-.88-.08-1.28-.08-.56,0-.32.4-.8.4-1.2,0-1.68-1.76-1.68-2.08,0-1.76.96-2.56,2-3.28,1.28-.32,1.6-2.72,3.04-2.72,1.44-2.4,4.56-3.04,5.76-5.76,1.84-.56,2.8-2.08,4.24-3.04-.08-.24-.08-.48-.08-.72,0-2.08,1.6-2.64,1.6-4.64,1.76,0,2.64-3.12,4.24-3.84,2.24-.4,3.84-1.52,6.56-1.52,2.16-2.88,5.68-4.24,8-6.96,2.88-2.16,5.6-4.4,8.48-6.48,1.12-1.92,3.44-2.72,4.64-4.64,3.12-.96,4.56-3.52,8.32-3.52.24,0,.56.08.96.08,1.12,0,1.84-1.84,2.72-1.84.16,0,.4.08.64.32h.24c1.28,0,1.76,3.04,1.76,2.96,0,3.12-2.4,5.52-2.4,8.8v.48c-2.32,4.24-3.52,9.52-6.16,13.44v2.32c-1.6,1.04-2.24,4.32-3.44,7.28-1.2,2.88-3.44,7.28-3.44,10.4,0,1.52-.48,2.8-.48,3.68,0,.64.16,1.36.16,2,0,.56-.16,1.04-.48,1.2.08.16.08.32.08.4,0,.32-.24.4-.56.4-.24,0-.56-.08-.8-.08-.64,0-1.44.88-2.64.88-.24,0-.4,0-.64-.08ZM112.49,14.8c-.4,1.52-2.08,2-3.12,2.72-1.2.8-2.16,1.68-3.44,2.24-1.2.56-1.36,2.48-3.2,2.4h-.4c-.8,1.68-2.96,2-3.84,3.52-1.6.48-2.24,1.84-3.84,2.24v.32c0,1.04-3.04,1.2-3.04,3.2,3.2,1.28,4.64,4.72,7.68,6.48.32,1.44,1.68,1.92,2.24,3.12.64,1.44,1.52,4.48,2.72,4.56-.08-.24-.08-.4-.08-.56,0-1.6,1.44-1.84,1.6-3.28.48-2.24,1.76-3.6,1.92-6.16.96-.64.96-2.32,1.92-3.04.16-2.16.8-3.84,1.92-4.96,0-2.08.8-3.28,1.52-4.64.32-1.84,1.76-3.28,1.76-4.8,0-.8.72-1.44.96-2.08.24-.88,0-2,.8-2.72-.08-.16-.08-.4-.32-.4h-.08c-.72,1.28-2.4,1.28-3.68,1.84Z"/>
        <path class="cls-2" d="M160.57,38.16c-.48.32-1.92.48-2.72.48-.48,0-.32.24-1.04.48-.88.72-.96,2.16-1.2,3.52-.88.48-1.2,1.52-1.52,2.64-2,2.32-4.48,4.24-6.48,6.56-1.84.16-2.24,1.68-3.84,1.92-.88,1.12-2.88.96-3.52,2.32-4.56.72-7.28,2.72-11.6,2.72-3.44,0-5.2-2.32-6-5.44.32-1.04.08-2.16.32-3.04.08-.24.72-.64.8-.8.24-.72,0-1.68.4-2.32.32-.72,1.28-2.96,2.32-4.96.16-.4.64-.56.72-.8,4.16-8.32,5.84-10.88,8.88-15.36.8-1.44,2.08-2.4,3.04-3.84,2.88-4.48,6.72-7.12,10-11.52.32-.4.88-.56.88-1.04,0-.16-.08-.24-.16-.48,1.36-.32,1.44-1.92,2.72-2.32.32-1.36,1.52-1.76,2.72-2.32.64-1.36,2-4.56,3.92-4.56,1.2,0,2.24,2.08,2.24,2.16,0,4.24-14.64,17.44-13.6,17.44-.16,0-.32-.08-.48-.08-.64,0-4.4,3.12-4.4,4.72,0,.16.08.24.24.24.96,0,1.12-.72,2.16-.72.88,0,1.68.4,2.8.4.4,0,3.6,2.8,5.2,3.84,1.36,2,2.32,3.76,3.04,6.16.8.08,1.44.16,2.08.08,1.04-.08,2.24.32,3.52,0,.16.32.24.56.24.8,0,1.04-1.12,2.08-1.68,3.12ZM130.01,54.48c2.48,0,5.2-1.92,8-1.92,1.2-1.2,3.04-1.76,4.96-2.24,1.76-1.68,4-2.96,5.36-5.04.16-.08,2.72-2.48,2.72-2.64,0-1.76,1.28-2.32,1.52-3.84-5.36,0-9.28-.96-13.04-2.32-1.04-1.84-3.12-2.96-3.12-3.12-.48.08-.4.88-.72,1.2-3.12,3.68-4.96,8.56-7.28,13.04-.4,1.68-1.28,2.8-1.28,4.88,0,1.68,1.84,2,2.88,2ZM150.25,31.44c-.4-.72-.88-1.2-1.52-2.24-1.2,0-1.6-.8-2.8-.8-.96,0-1.76.4-2.96.4-.24,1.2-1.92.96-1.92,2.4,0,1.6,5.2,3.04,7.92,3.04.72,0,2.48.24,2.8-.48-.56-.8-.88-1.68-1.52-2.32Z"/>
        <path class="cls-2" d="M170.8,35.84c.32-.16,1.04-1.04,1.92-1.52,2.32-.32,3.28-2,5.36-2.64,1.28-.96,2-2.4,3.12-3.52,2.16-.32,3.52-1.52,6.08-1.52,1.28.96,4,2,3.92,4.24.64,1.36.72,2.88.96,4.16.08.16.48.32,1.12.16,1.12-.24.08.08,1.2-.32,1.36-.56,3.28-.24,3.28-.16.08.64-1.52,3.04-1.92,3.36-.16.08-.48.16-1.12.4-1.28.48-.48.08-1.68.56-1.28.48-1.44.64-1.44.72-.96,3.12-3.04,4.56-4.64,6.88-.48.48-2.48,1.6-2.24,2.32-.96.16-.64.88-1.6,1.92-2.72,2.24-5.76,4.16-9.2,5.76-2.72.56-6.56.16-8.48-.4-1.04-1.68-.8-4.64-.8-7.28.4-.88.72-1.92,1.2-2.72.16-.32.96-.48,1.12-.8.32-.48.16-1.04.4-1.52.96-1.68,1.28-3.52,2.64-4.8.32-.88.64-2.16.8-3.28ZM175.04,40.48c-.96.08-1.12.96-1.52,1.52-1.6,2-2.72,4.48-4.24,6.16,0,1.68-1.12,2.24-.8,4.24h3.92c.8-.08,3.6-1.68,3.84-1.92.32-.32.32-.16.8-.4,1.2-.72,1.92-2.08,3.44-2.32.72-.88,1.44-1.84,2.32-2.64.8-.88,1.6-1.68,2.64-2.32.56-.96,1.2-.96,1.2-2.24-1.28.8-3.84.96-5.44,1.04-.56-.48-1.68-.32-2.72-.32-1.04-.64-1.76-1.6-3.04-1.92-.08.48-.56.48-.4,1.12ZM184.64,32.8c-.48.96-1.6,1.28-2.72,1.52-.24.8-2.16,1.92-1.12,2.72.08-.64.56,0,.4.72,2.32.16,5.52-.32,6.96-1.12-.16-1.52.32-3.68-.4-4.64-.48,0-2.16-.48-2.72-.32-.08.48-.56.48-.4,1.12Z"/>
        <path class="cls-2" d="M242.72,43.6c.16-.08,1.36,3.44,1.36,3.44,0,0-5.04,3.36-5.28,3.28-.24-.08-5.28,3.92-9.04,4.72-.96.16-2.16.24-3.12.72-1.76,0-3.6-.8-5.36-.8-1.2-.56-1.68-1.84-2.32-3.04-2.08.56-3.68,1.68-4.96,3.04-2.88.64-6,2.56-9.2,3.12-.64.08-1.36-.08-1.92,0-1.04.08-2.72.4-4.24-.4-1.68-.48-1.76-2.64-2.72-3.84.48-1.44.64-3.2,1.2-4.64.96-1.2,7.76-11.84,9.12-12.64-.16-1.2,3.92-4.56,4.08-5.52.4-.56.32-1.68,1.52-1.52,1.76-.4,2.16.64,3.04,1.2.32,3.68-2,4.8-3.84,6.48-.24,1.44-1.68,2.56-2.56,3.36-.72.96-4.32,6.48-5.44,6.96-.48,2.4-3.12,2.88-2.48,6.32,3.92,1.36,7.04-1.28,10.32-1.92,1.76-1.2,3.6-2,5.44-3.04,1.6-1.04,3.04-2.48,4.96-3.12,1.52-2.96,6.24-7.6,8.56-10.08.72-.8,1.12-1.92,2.32-2.32,0-1.12.88-1.36,1.52-1.92.8-.4,1.44-1.04,1.92-1.92.4-.24,1.76-1.44,2.32-.32,1.6.16,1.28,2.96.72,3.84-.16.16-.32-.08-.4.32,0,.64-.32.88-.72,1.6-1.92,2.16-3.76,4.48-5.76,6.48-2,2-7.12,6.08-7.76,9.36,1.36.8,2.96.96,4.16.8,3.68-.72,7.92-3.44,10.64-5.44,1.2-.96,3.68-2.4,3.92-2.56Z"/>
        <path class="cls-2" d="M271.76,50.48c-1.92.88-2.8,1.92-4.08,2.56-.8.4-2.16,1.6-3.44,2-.24,0-1.44.56-1.68.72-.48.16-.56.48-1.52.72-.48.16-1.92.64-2.64.8-1.2.32.08-.24-1.6.16-.8.16-1.52.32-2.32.8-1.68-.72-4.56-.32-6.88-.4-.48-.8-1.68-.88-2.72-1.2-.96-1.6-3.04-3.04-3.44-5.76-.32-2,.24-4,.8-6.08.96-2,1.52-5.52,2.64-6.56,1.92-3.12,3.2-6.88,5.44-9.6-.56-.64-1.92-.56-3.12-.4-.88.16-2.8.56-4.56.8-2.48.24-5.76,1.44-6.56-1.2-.16-1.52,2-.8,2.72-1.52.72-.64,2.48-.32,3.04-1.12,4-.24,7.68-.8,11.52-1.2.64-.08,1.2-.72,1.52-1.12.24-.32.16-.8.4-1.12.56-.72,2.24-2,3.04-3.12,1.6-1.92,2.8-4.08,4.24-6.16,1.36-.96,1.2-3.36,3.84-3.04,1.6,0,.32,2.72,1.2,3.44-1.92,3.76-5.28,6-6.56,10.4.16.8,1.92.16,2.72.4,8.88-.8,18.32-1.2,27.2-1.92.96.48,2.32,1.12,1.36,2.32-2,.16-3.68.4-3.6.32-2.24-.08-3.68.64-6.16.4-1.68.96-3.2.32-5.36,1.12-1.52.08-2.88,0-3.84-.32-2.64,1.2-2.8-.08-5.44.72q-1.12.32-2.24,0c-.72.32-1.44.64-2.32.8-.96.16-2.88-1.6-4.24,0,.08.8-1.36.16-1.92.4-.88,2.24-2.96,3.36-3.84,5.76-1.92,1.36-1.76,3.68-3.84,4.96.08,1.04-1.04,1.52-1.52,2.32-.56.8-.56,2.08-1.52,2.64-.48,3.04-1.76,5.52-.4,8.48.88.64,1.44,1.28,2.32,1.52.32.08.24.32.32.4,2.56,1.2,6.08,0,8.88-.4,1.2-.32,3.12-.64,4.4-1.76.08-.08,2.16-1.12,2.24-1.12.64-.32,1.12-.88,1.84-1.2.64-.24,1.68-.24,2.32-.4.4-.88,1.84-.64,2.96-.8,1.2.96-.32,1.68.4,2.56Z"/>
      </g>
      <g>
        <path d="M355.07,74.26c-8.39-1.07-16.8-2.64-25.22-3.47-29.14-2.88-63.36-3.1-92.24,1.63-13.11,2.15-27.08,5.75-38.61,12.31l-1.18-.84c.94-4.75.1-6.53-3.9-9.02-16.55-10.28-64.69-4.37-82.93,2.26-4.51,1.64-5.26,5.5-9.65,8.3-2.77,1.76-12.83,6.22-11.93-.41.57-4.22,12.19-8.07,15.95-9.27.34-2.69-2.94-3.96-5.08-4.6-22.13-6.61-83.49,5.16-98.04,24.51l-2.23,3.49c.59-4.23,4.13-7.39,7.25-9.93,19.62-15.98,60.03-25.14,84.88-22.39,3.7.41,11.58,1.57,14.2,4.26.81.83,1.46,3.03,1.61,3.12.93.58,18.39-4.12,21.39-4.66,16.7-3.01,49.86-6.4,64.95,1.48,3.71,1.94,5.47,4.57,7.25,8.21,10.1-4.47,20.78-7.67,31.66-9.7,32.9-6.16,72.05-4.68,104.98.92,4.79.81,10.5,1.65,15.14,2.83.69.18,1.55,0,1.75.99ZM102.87,80.24l-4.17,1.56-5.81,3.41c3.64-.22,7.46-2.39,9.99-4.96Z"/>
        <path class="cls-1" d="M102.87,80.24c-2.52,2.58-6.35,4.75-9.99,4.96l5.81-3.41,4.17-1.56Z"/>
      </g>
    </g>
  </g>
</svg>