<?xml version="1.0" encoding="UTF-8"?>
<svg id="_レイヤー_2" data-name="レイヤー 2" xmlns="http://www.w3.org/2000/svg" viewBox="0 0 365.05 109.12">
  <defs>
    <style>
      .cls-1 {
        fill: #fff;
      }

      .cls-2 {
        fill: #be6763;
      }
    </style>
  </defs>
  <g id="text">
    <g>
      <g>
        <path class="cls-2" d="M75.89,47.28c0,.4.56,3.92-1.52,6.96-2.64,3.76-8,7.84-8.4,7.92v.16c-.08.8-1.52-.24-1.52.48s-6.16,2.08-6.64,2.8c-.32,1.28-2.48.64-2.72,1.92-3.44,0-3.6,1.92-6.16,1.92-1.44.24-2.56,1.2-4,1.2-1.2,0-1.12,1.36-2.16,1.52-5.76.96-11.6,3.52-19.84,3.52-3.04,0-6.48-.4-9.68-1.2-1.04-.96-2.08-1.76-3.44-2.32-2.32-2.56-4.08-5.68-5.04-9.6.08-4.56-.24-8.32.8-12.32,0-.16.72-.64.72-.72,1.76-5.2,3.92-12.4,7.68-16.96,1.04-2.4,3.12-3.76,4.24-6.08,1.84-1.04,2.48-3.2,4.64-3.84.48-.88.96-2,1.92-2.72.24-.16,1.2-.16,1.2-.56,0-.16-.08-.4-.08-.48,0-.24,1.12-.4,1.52-.88,1.04-.88,1.76-2.08,3.12-3.04,1.52-1.12,3.52-2.24,4.96-3.84,3.52-2,6.88-4.16,10.4-6.16,2.16-.56,3.44-1.92,5.76-2.32-.08-.16-.08-.24-.08-.4,0-.32.24-.32.56-.32h.64c.72,0,.88-.56,1.52-.8,1.68-.56,2.96-.48,5.44-.8.64-.08,1.2-.32,1.76-.32,1.92,0,3.84,1.2,5.52,1.52,2.4,2,1.52,5.36,3.04,6.48v1.92c0,2.48-.24,4.64-.72,6.56-1.36,1.76-2.56,3.6-3.84,5.36-.32,1.28-1.52,1.6-1.92,2.72-2.96,4.56-5.36,5.2-5.44,5.76-.16.48-.4.72-.96.72h-.16c-.56,1.36-2.32,2.4-4.16,2.4-.72,0-2.08-.08-2.08-1.04,0-2.32,2-2.8,3.52-3.68,1.76-2.72,4.24-4.72,6.56-6.88.16-2,2.32-1.92,2.32-4.24,1.44-.72,1.76-2.48,3.04-3.44.24-1.12.4-2.56.4-3.84,0-6.16-3.84-4.96-6.56-6.88-1.36.4-3.12.4-4.56.72-1.2.08-1.52,1.12-2.32,1.6-.4-.08-.64-.16-.96-.16-1.2,0-1.6.88-2.88.88-.88.24-.8,1.2-1.84,1.2-.08,0-.32,0-.48-.08-1.44,1.44-2.8,2.64-4.56,3.52-.56.48-1.92.16-1.92,1.12-2.48,1.36-4.64,3.44-6.96,4.96-1.28.56-1.44,2.16-3.04,2.32-2.08,2.64-5.12,4.48-7.28,6.96-2.08,1.92-4.4,5.12-6.16,7.28,0,.96-.24,1.52-.96,1.52h-.24c-.16.64-.08,1.52-.88,1.52-1.2,0-1.92,6.16-3.28,6.56.56,1.36-1.28,1.52-1.28,2.56,0,1.52-.4,2.88-1.44,3.92-.32,3.12-.8,6.08-1.52,8.88,1.12,6.24,2.56,8.8,8.4,12.64,1.44,0,2.72.16,3.52.8,4.8-.72,10.4-.56,14.96-1.52.64-.48,1.92-1.04,2.88-1.04.4,0,.72.08.96.24,1.12-1.52,2.48.16,4.56-1.92,1.68-.48,3.36-.72,5.04-1.12,3.36-1.76,7.04-3.2,10.72-4.64,3.6-2.32,8-5.04,10.96-7.52,2.56-2.08,4.4-4.72,6.4-7.36Z"/>
        <path class="cls-2" d="M73.24,46.56c.32-.16,1.04-1.04,1.92-1.52,2.32-.32,3.28-2,5.36-2.64,1.28-.96,2-2.4,3.12-3.52,2.16-.32,3.52-1.52,6.08-1.52,1.28.96,4,2,3.92,4.24.64,1.36.72,2.88.96,4.16.08.16.48.32,1.12.16,1.12-.24.08.08,1.2-.32,1.36-.56,3.28-.24,3.28-.16.08.64-1.52,3.04-1.92,3.36-.16.08-.48.16-1.12.4-1.28.48-.48.08-1.68.56-1.28.48-1.44.64-1.44.72-.96,3.12-3.04,4.56-4.64,6.88-.48.48-2.48,1.6-2.24,2.32-.96.16-.64.88-1.6,1.92-2.72,2.24-5.76,4.16-9.2,5.76-2.72.56-6.56.16-8.48-.4-1.04-1.68-.8-4.64-.8-7.28.4-.88.72-1.92,1.2-2.72.16-.32.96-.48,1.12-.8.32-.48.16-1.04.4-1.52.96-1.68,1.28-3.52,2.64-4.8.32-.88.64-2.16.8-3.28ZM77.48,51.2c-.96.08-1.12.96-1.52,1.52-1.6,2-2.72,4.48-4.24,6.16,0,1.68-1.12,2.24-.8,4.24h3.92c.8-.08,3.6-1.68,3.84-1.92.32-.32.32-.16.8-.4,1.2-.72,1.92-2.08,3.44-2.32.72-.88,1.44-1.84,2.32-2.64.8-.88,1.6-1.68,2.64-2.32.56-.96,1.2-.96,1.2-2.24-1.28.8-3.84.96-5.44,1.04-.56-.48-1.68-.32-2.72-.32-1.04-.64-1.76-1.6-3.04-1.92-.08.48-.56.48-.4,1.12ZM87.09,43.52c-.48.96-1.6,1.28-2.72,1.52-.24.8-2.16,1.92-1.12,2.72.08-.64.56,0,.4.72,2.32.16,5.52-.32,6.96-1.12-.16-1.52.32-3.68-.4-4.64-.48,0-2.16-.48-2.72-.32-.08.48-.56.48-.4,1.12Z"/>
        <path class="cls-2" d="M161.26,61.84c-3.92.96-4.32,2.72-8.16,3.76-3.36.72-7.92,3.04-11.52,1.12-2.08-1.92-.72-5.68-.4-8.4.8-.16.4-1.44,1.2-1.6.08-.64-.4-1.92.72-1.52-.24-1.76.64-2.48,1.2-3.44.56-.88.8-2.24,1.52-3.04.56-1.04,1.36-1.76,1.52-3.12-2.24.08-3.04,1.92-4.64,3.12-3.2,2.4-5.44,5.76-8.4,8.8-.96.96-1.92,1.92-3.12,2.72-1.36,2.48-3.2,4.4-4.96,6.48-2.16-.48-2.32,1.04-4.24.8-.24-1.12-1.36-1.92,0-2.72.16-1.12.24-2.32,1.2-2.64.88-1.84,2.08-3.28,2.64-5.44,1.44-1.2,1.84-3.6,3.12-4.96.32-2.24,1.12-4,1.52-6.16-1.68-.88-3.44,1.12-4.64,1.92-1.52.72-2.72,1.84-3.84,3.12-1.68.72-2.72,2.08-3.84,3.44-1.92.32-2.08,2.48-4.24,2.64-1.6,2-3.2,4-5.36,5.44.08.72-.8,1.12-1.12,1.52-.4.48-.4,1.44-1.2,1.52-.32,1.44-1.68,1.92-2.24,3.04-2.16-.32-3.92,1.12-5.04-.32.08-.4,0-.8,0-1.2.08-.72.24-.96.8-1.52,1.84-1.92,2.48-5.84,4.24-8.48.64-2,1.92-3.44,2.64-5.36.48-.88.96-1.68,1.04-2.48.48-2.24,1.12-3.28,2.08-7.04.72-1.76-1.52-.48-1.2-1.92-.32-1.84,1.68-1.44,1.6-3.04,1.36-.16,1.12-1.92,1.92-2.72.08-.4.72-.24.72-.72h.8c3.76,1.28,1.84,7.84-.4,10,0,.88-.4,1.84-.4,2.72-.64,1.28-.48,1.28-.88,2.72.16,1.12-1.04,2.24-1.04,4,.24.96,1.04-.72,1.92-.32.32-.72,1.44-.64,1.52-1.6,1.6-.4,2.64-1.44,3.44-2.64,1.44-.64,2.64-1.52,3.84-2.32,1.12-.96,2.8-1.36,3.52-2.72,3.44-.48,4.88-3.04,8.4-3.44,2.8,2.48.8,7.2.4,10.8.08.88,1.04-.48,1.52-.4.24-.56.64-.96,1.2-1.2.48-1.12,1.68-1.6,2.64-2.24,1.36-1.92,3.92-2.48,5.04-4.64,2.96-.88,4.48-3.2,7.28-4.24,2.96,1.6,1.68,6.4,0,8.48-1.04,4.08-3.84,6.4-5.04,10.32-.72,1.76-1.68,3.44-1.52,6.16,2.96,1.36,4.96-1.36,7.68-1.52.4-.24.4-.88,1.2-.8.48-.48,1.28-.48,1.92-.72,1.36-.64,1.84-.64,3.44-1.6,2-1.12,1.44-2.24,3.76-2.96,2.16-1.76,8.32-9.04,7.2-.8-2.24,1.36-6.32,6.4-8.96,7.36Z"/>
        <path class="cls-2" d="M222.31,44.48c.16,0-4.72,5.28-4.8,5.28-1.12.48-14.4,6.72-14.56,7.2-1.36.24-2.48.96-3.44,1.92-2.08,1.04-4.8,2.56-7.12,4.08-.8.16-1.52.48-2.24.8-.16.96-2.16.32-2.4,1.2h-2.72c-1.44,0-2.88,0-4.24-.4-1.92-1.92-2.96-4.56-4.24-6.88-1.92,2.08-7.84,11.36-9.6,11.92.32,1.2-.8,1.52-.72,2.64-2.16,1.2-7.68,10.8-9.6,13.44-.48.16-.88.64-.8,1.2-1.04,1.6-2.48,2.88-3.44,4.56-2.16,3.6-10.56,17.68-15.04,17.68h-.32c-1.28-1.44-.72-5.04-.8-6.88.72-2.08,1.68-4,2-6.16.88-.56.16-2.24,1.12-2.72,0-.88.8-1.44.8-2.32l-.08-.72c1.04-.24.88-1.76,1.92-1.92-.16-1.12,2.56-6.4,3.52-6.88-.96-2.48,10.72-15.76,11.84-18.88.72-.4,6.88-6.64,6.96-6.88,1.36-1.68,10.56-10.24,12.24-10.4.72-2.16,14.88-10.4,17.68-10.4,2.56,0,3.76,1.76,5.36,3.52-.24.48.08,1.12.4,1.52v.32c0,.96-.4,1.84-.4,2.8l.4.72v.8c0,2.88-.56,5.68-1.12,8.4.16.16.4.24.56.24,1.76,0,17.84-7.76,20.24-8.96l2.64.16ZM173.9,50.4c-.8.64-1.2,1.52-2.32,1.52-.48,1.84-2.48,2.32-3.44,3.84-1.68.88-2.24,2.88-3.84,3.84-1.04.08-.72,1.6-1.52,1.92-.24,1.04-1.6,1.04-1.6,2.32-1.36.16-2.32,3.36-3.84,3.84-.08.16-5.6,8.16-6.08,8.8-.56,2-2.56,2.8-2.72,5.04-1.44,1.28-1.6,3.28-3.04,4.56v1.92c-1.2.8-1.44,2.4-2.32,3.44.16,1.84-.64,2.96-1.2,4.64.4,1.2-.48,1.12-.72,1.92-.16.08-.4.16-.4.32,0,.56.56.96.56,1.44,0,.24-.08.4-.16.56,1.36-.32,1.84-1.6,2.32-2.72,1.12-.72,1.92-1.76,2.24-3.04,1.68-1.12,2-3.44,3.52-4.64v-.72c.56-1.04,1.6-2.48,2.24-3.52l.8-.32c.32-.48-.24-1.68.8-1.6,1.44-2.4,3.44-4.48,4.96-6.88-.08-.72.48-1.28,1.12-1.52.48-.72.32-1.6.8-2.32h.8v-.8c2.96-3.52,5.12-8.8,8.8-11.52.08-1.52,1.6-2.08,1.92-3.44.96-1.36,3.92-5.44,3.92-7.04,0-.24-.08-.32-.48-.24-.32.24-.72.4-1.12.4ZM191.9,38.88c-.08.48-.56.72-.72,1.12-1.92-.24-2.4,1.6-4.24,1.52-.72,1.2-1.76,2.32-2.96,3.12-.32,2-2.64,5.84-3.76,7.68-.64.8-1.2,1.52-1.36,2.64,1.84,1.2,2.4,4.4,5.2,4.4,2.08,0,4.4-1.36,6.8-1.36-.08-.88,1.36-1.28,2-1.52,2.32-2.96,3.52-8.32,3.52-12,0-1.68-.24-3.36-.96-4.88-1.04-.4-2-.72-3.12-.72h-.4Z"/>
        <path class="cls-2" d="M215.82,46.56c.32-.16,1.04-1.04,1.92-1.52,2.32-.32,3.28-2,5.36-2.64,1.28-.96,2-2.4,3.12-3.52,2.16-.32,3.52-1.52,6.08-1.52,1.28.96,4,2,3.92,4.24.64,1.36.72,2.88.96,4.16.08.16.48.32,1.12.16,1.12-.24.08.08,1.2-.32,1.36-.56,3.28-.24,3.28-.16.08.64-1.52,3.04-1.92,3.36-.16.08-.48.16-1.12.4-1.28.48-.48.08-1.68.56-1.28.48-1.44.64-1.44.72-.96,3.12-3.04,4.56-4.64,6.88-.48.48-2.48,1.6-2.24,2.32-.96.16-.64.88-1.6,1.92-2.72,2.24-5.76,4.16-9.2,5.76-2.72.56-6.56.16-8.48-.4-1.04-1.68-.8-4.64-.8-7.28.4-.88.72-1.92,1.2-2.72.16-.32.96-.48,1.12-.8.32-.48.16-1.04.4-1.52.96-1.68,1.28-3.52,2.64-4.8.32-.88.64-2.16.8-3.28ZM220.06,51.2c-.96.08-1.12.96-1.52,1.52-1.6,2-2.72,4.48-4.24,6.16,0,1.68-1.12,2.24-.8,4.24h3.92c.8-.08,3.6-1.68,3.84-1.92.32-.32.32-.16.8-.4,1.2-.72,1.92-2.08,3.44-2.32.72-.88,1.44-1.84,2.32-2.64.8-.88,1.6-1.68,2.64-2.32.56-.96,1.2-.96,1.2-2.24-1.28.8-3.84.96-5.44,1.04-.56-.48-1.68-.32-2.72-.32-1.04-.64-1.76-1.6-3.04-1.92-.08.48-.56.48-.4,1.12ZM229.67,43.52c-.48.96-1.6,1.28-2.72,1.52-.24.8-2.16,1.92-1.12,2.72.08-.64.56,0,.4.72,2.32.16,5.52-.32,6.96-1.12-.16-1.52.32-3.68-.4-4.64-.48,0-2.16-.48-2.72-.32-.08.48-.56.48-.4,1.12Z"/>
        <path class="cls-2" d="M237.67,62.4c0-1.52,0-3.76-.16-3.76,3.2-.88,6.96-4.8,9.68-6.24,3.36-2.16,7.92-6.24,11.52-8.08,1.92-1.12,3.6-2.48,5.44-3.6,1.6-.96,3.2-2.4,5.36-2.64.4.64.96,1.28,1.52,1.92.4,1.36-.64,2.48-1.12,3.44-.8,1.52-1.76,2.88-2.72,4.32-.08.16.16.64,0,.72-.72.64-4.32,7.28-4.72,8.8-1.04.96-2.32,1.76-2.64,3.44.88,1.12,2.24-.56,3.84,0,3.36-.8,6.96-1.76,10.32-2.64,3.84-1.76,7.92-3.52,11.44-5.6,0,1.68.32,3.76-.24,3.28-.88.32-2.08,1.68-2.88,2-.24.08-.96.72-1.2.72-.48.16-.72.16-1.12.4-1.28.56-1.84,1.44-2.88,2-.4.24-.8.32-1.2.4-.8.32-1.76.8-2.64,1.04-.88.24-1.12.48-2.32.8-1.04.24-3.84.88-5.36,1.84-4.32.48-9.04,2.72-13.84,2.24-1.52-.08-2.96-1.04-4.64-1.12-1.04-1.04-2.16-2.16-3.84-2.72-.4-1.04-.4-2.24,0-3.28-1.2-.32-1.2.56-1.92.72-.24.56-1.44.08-1.52.8-.96.56-2.16,1.12-2.16.8ZM255.59,58.8c1.2-1.04,4.8-5.6,5.04-7.52,1.04-.4,1.36-3.12,2.32-3.52-.08-.88.08-1.44.8-1.52-.08-.48-.16-.96-.8-.8-.08.56-.64.64-.72,1.12-2.8.72-3.2,3.68-6.08,4.32-1.84,1.68-7.92,6.32-10.16,7.68,1.92,1.6,3.12,3.68,6.48,3.28,1.52-.56,2.48-1.6,3.12-3.04Z"/>
        <path class="cls-2" d="M296,62.4c-.16-.56-2.64.64-2.72,1.12-1.92,1.04-4.48,1.44-6.56,2.32-.4.88-1.12.16-1.92.4-.16.08-.96.72-1.12.8-2,.32-4.08-.08-5.76.32-.24-1.04-1.6-.96-1.52-2.24-.32-1.44-.08-2.8.24-3.52.72-1.52,2.72-4.8,4-5.76,2.48-2.08,5.28-6.96,7.92-8.88.24-.88,1.12-1.2,1.92-1.52.08-1.12,1.2-1.12,1.52-1.92.72-.48,1.28-1.04,1.92-1.6.72-.32.48-1.52,1.92-1.12,1.6-.16,1.04,1.76,1.92,2.32-.4,2.4-2.8,2.8-3.44,4.96-2,.72-2.4,3.12-3.92,4.24-2,.8-3.84,4.72-5.6,5.84-.96,1.68-3.12,2.24-3.44,4.64,1.6,1.04,4-.32,5.04-1.2,2.88-.24,5.12-1.52,7.28-2.64,2.08-1.12,4-2,6.08-3.2,1.6-.64,1.6-1.76,2.96-2.56,1.68-.48,3.28-1.92,5.28-2.08.88,2.48-.56,4.88-4.16,6.72-.56.8-1.84,1.2-2.48,1.92-1.04,1.2-4.48.96-5.36,2.64ZM312.08,17.44c.8,1.52,1.04,3.6,1.2,5.76-1.04,1.36-3.76.64-5.04,0-.08-3.28-.08-6.48,3.84-5.76Z"/>
        <path class="cls-2" d="M333.92,61.2c-1.92.88-2.8,1.92-4.08,2.56-.8.4-2.16,1.6-3.44,2-.24,0-1.44.56-1.68.72-.48.16-.56.48-1.52.72-.48.16-1.92.64-2.64.8-1.2.32.08-.24-1.6.16-.8.16-1.52.32-2.32.8-1.68-.72-4.56-.32-6.88-.4-.48-.8-1.68-.88-2.72-1.2-.96-1.6-3.04-3.04-3.44-5.76-.32-2,.24-4,.8-6.08.96-2,1.52-5.52,2.64-6.56,1.92-3.12,3.2-6.88,5.44-9.6-.56-.64-1.92-.56-3.12-.4-.88.16-2.8.56-4.56.8-2.48.24-5.76,1.44-6.56-1.2-.16-1.52,2-.8,2.72-1.52.72-.64,2.48-.32,3.04-1.12,4-.24,7.68-.8,11.52-1.2.64-.08,1.2-.72,1.52-1.12.24-.32.16-.8.4-1.12.56-.72,2.24-2,3.04-3.12,1.6-1.92,2.8-4.08,4.24-6.16,1.36-.96,1.2-3.36,3.84-3.04,1.6,0,.32,2.72,1.2,3.44-1.92,3.76-5.28,6-6.56,10.4.16.8,1.92.16,2.72.4,8.88-.8,18.32-1.2,27.21-1.92.96.48,2.32,1.12,1.36,2.32-2,.16-3.68.4-3.6.32-2.24-.08-3.68.64-6.16.4-1.68.96-3.2.32-5.36,1.12-1.52.08-2.88,0-3.84-.32-2.64,1.2-2.8-.08-5.44.72q-1.12.32-2.24,0c-.72.32-1.44.64-2.32.8-.96.16-2.88-1.6-4.24,0,.08.8-1.36.16-1.92.4-.88,2.24-2.96,3.36-3.84,5.76-1.92,1.36-1.76,3.68-3.84,4.96.08,1.04-1.04,1.52-1.52,2.32-.56.8-.56,2.08-1.52,2.64-.48,3.04-1.76,5.52-.4,8.48.88.64,1.44,1.28,2.32,1.52.32.08.24.32.32.4,2.56,1.2,6.08,0,8.88-.4,1.2-.32,3.12-.64,4.4-1.76.08-.08,2.16-1.12,2.24-1.12.64-.32,1.12-.88,1.84-1.2.64-.24,1.68-.24,2.32-.4.4-.88,1.84-.64,2.96-.8,1.2.96-.32,1.68.4,2.56Z"/>
        <path class="cls-2" d="M364.81,58.64c-1.2,1.92-11.84,8.24-17.84,8.64-5.04.32-9.68-.88-12.72-2.96-1.84-.24-2.48-2.4-2.32-3.84-.32-1.6-.8-3.6-.32-5.44,0,0,.32-.16.32-.4.24-.8,1.52-4.64,2.48-5.04.4-1.12.8-2.32,1.92-2.72.88-2.16,3.04-3.12,4.16-4.96,2.16-.96,4.24-1.92,5.76-3.52,2.8.24,3.92-1.2,6.56-1.12,1.12.88,1.2,1.92,1.12,3.44,0,.64-.16.48-.32.8-.32.56-.16,1.92-.8,2.64,0,3.12-2.96,6.56-3.2,9.36-1.12.56-1.92,2.24-2.64,3.12-.72.88-1.84,1.2-2.32,2.24-1.84.64-2.8,2.08-4.64,2.72,1.2,1.04,3.12,1.52,4.24,1.84h.8c4.24-.24,10.56-2.88,13.92-5.36.72-.56,2.32-1.36,3.04-1.68.72-.24,2.24-1.04,3.04-1.04,0,.16,0,2.88-.24,3.28ZM346.64,42.64c-2.32,1.28-3.6,3.68-5.76,4.64-1.44,2.64-5.04,7.2-5.12,11.28,1.2.08,2.64-.56,3.12-.8.96-.56,1.52-.88,2.32-1.52,2.4-1.92,5.52-7.44,6.96-9.76.72-1.12,1.6-2.32,1.6-3.84-.08-.24-.08-.72-.4-.72-1.04.72-2.08.4-2.72.72Z"/>
      </g>
      <g>
        <path d="M355.5,83.08c-8.4-1.07-16.82-2.64-25.25-3.47-29.18-2.88-63.43-3.1-92.35,1.63-13.13,2.15-27.12,5.75-38.66,12.31l-1.18-.84c.94-4.75.1-6.53-3.91-9.02-16.57-10.28-64.77-4.37-83.03,2.26-4.52,1.64-5.26,5.5-9.66,8.3-2.77,1.76-12.84,6.22-11.95-.41.57-4.22,12.21-8.07,15.97-9.27.34-2.69-2.95-3.96-5.08-4.6-22.16-6.61-83.59,5.16-98.16,24.51l-2.24,3.49c.59-4.23,4.14-7.39,7.26-9.93,19.65-15.98,60.1-25.14,84.98-22.39,3.71.41,11.6,1.57,14.22,4.26.81.83,1.46,3.03,1.61,3.12.93.58,18.41-4.12,21.42-4.66,16.72-3.01,49.92-6.4,65.03,1.48,3.71,1.94,5.48,4.57,7.26,8.21,10.11-4.47,20.81-7.67,31.7-9.7,32.94-6.16,72.13-4.68,105.11.92,4.8.81,10.51,1.65,15.16,2.83.69.18,1.56,0,1.75.99ZM103,89.06l-4.18,1.56-5.82,3.41c3.64-.22,7.47-2.39,10-4.96Z"/>
        <path class="cls-1" d="M103,89.06c-2.53,2.58-6.35,4.75-10,4.96l5.82-3.41,4.18-1.56Z"/>
      </g>
    </g>
  </g>
</svg>