<?xml version="1.0" encoding="UTF-8"?>
<svg id="_レイヤー_2" data-name="レイヤー 2" xmlns="http://www.w3.org/2000/svg" viewBox="0 0 383.03 96.08">
  <defs>
    <style>
      .cls-1 {
        fill: #fff;
      }

      .cls-2 {
        fill: #be6763;
      }
    </style>
  </defs>
  <g id="text">
    <g>
      <g>
        <path class="cls-2" d="M98.8,13.04c-.88,1.36-2.96,2.32-4.96,2.32-2.64,0-2-1.44-2-3.04h.4c.64,0,1.04-.16,1.12-.8-.4-1.28-.8-2.48-1.92-3.44-1.12-.88-3.6-1.04-5.36-3.04-3.36-.56-6.88-1.2-11.2-1.2-2.32,0-5.28.08-7.6.4-1.68.24-3.36.88-4.96,1.12-5.6.8-15.52,1.2-16.96,4.64,1.04,1.28,3.92,1.52,6.4,1.52s5.52-.72,8-.72c1.84,0,3.44.4,4.48,1.92-.16,1.52-1.6,1.68-3.12,1.92-3.04,1.52-7.84,1.04-12.24,1.52-3.92.48-6.16,2.08-9.6,2.32-.16,0-.24-.08-.4-.08-.72,0-.48,1.44-2.32,1.44-.32,0-.56-.08-1.12-.24-.96.72-1.76,1.68-3.12,1.92-1.2.24-1.44,1.12-2.8,1.2-.24,0-.48-.08-.72-.08-.64,0,0,1.28-.64,1.28-.08,0-.24,0-.4-.08-.32,0-3.52,1.44-3.52,2.32-4.08,1.76-9.52,6.88-9.36,6.88-2.64,0-2.16,3.12-4.24,3.12-.16,0-.4-.08-.56-.08-.16,2-2.32,2-2.32,4.24v.4c-2.64,2-3.92,6.32-3.92,11.6,0,1.84.72,6.32,2.4,8,4.8,4.96,13.04,6.72,21.76,6.72,1.84,0,3.68,0,5.52-.24,1.76-.24,3.04-1.2,5.2-1.12h.56c-2.16,2.88-7.2,2.8-10.8,4.24h-1.76c-1.52,0-2.96.08-4.4.08-5.36,0-14.48-2.24-14.56-4.32-.72-.8-2.32-.8-3.04-1.52-2.48-2.64-4.72-7.12-4.72-11.2s1.12-6.8,1.6-10.32c1.28-1.68,2.32-3.6,3.44-5.36.96-.48,1.52-1.36,1.92-2.32,3.92-2.48,7.28-6.88,11.92-9.6.24-.4,2.8-1.92,2.8-1.92,1.28-.32,1.36-1.36,2.56-1.52,1.28,0,2.24-1.12,3.12-1.92.8-.72,5.12-1.92,5.36-1.92.4-.08.24-.32.4-.4,2.96-1.2,6-2.64,9.2-3.44-.24-1.52-1.52-2.4-1.52-4.16,0-7.6,23.92-9.12,29.2-9.68.72-.08,2-.32,2.64-.4.64,0,1.28.4,1.92.4.24,0,.64-.4,1.6-.4h4.16c2.08.8,4.8.48,6.56,1.2.96.4,4.56,1.52,6.88,2.64,1.76,2.48,5.12,4.48,5.12,8.24,0,.32,0,.64-.08.96Z"/>
        <path class="cls-2" d="M53.6,47.36c.08.24-.96-3.52-.96-3.6,1.36-.88,2.96-2.08,3.92-2.88,3.6-2.64,5.44-4.48,9.12-7.04,2.64-.8,4.96-2,7.36-3.04.56-.32,1.2-.4,1.92-.8.24-.16.48-.64.72-.8,1.04-.56,3.04-1.12,5.04-.32.24.88.96,3.52-.4,3.84-.48,1.2-1.44,1.92-2.72,2.24-1.04,2.24-3.52,3.2-4.96,5.04-.24.32,0,1.44-.24,1.68-.48.48.96,2.32-.08,2.56v.4c.32.72.24-.4.72-.4.56-.08.64-.64,1.2-.72.24-.88,1.28-1.04,1.52-1.92,1.04-.16,1.36-1.36,1.92-1.92.56-.56,1.28-1.12,1.92-1.52,2.16-2.72,5.44-4.32,7.28-7.36,2.16-.72,3.44-2.8,5.04-4.16.08-.16.64.08.72,0,.48-.64,1.12-1.28,1.92-1.92.88-.72,1.92-1.2,2.32-2.32.8-.4,1.52-.8,2.32-1.2.72-1.52,2.72-1.84,3.84-3.04,2.8-3.28,6.96-5.28,11.52-6.88,1.52.64,2.4,3.2,1.12,4.56-1.12-.48-2-1.28-3.84-1.12-1.04-.32.32,1.76-.72,1.52-.88-.08-1.52.08-1.6.8-.56.8-1.36,1.36-2.24,1.92-1.52,1.44-3.12,2.8-5.04,3.84-2.72,3.12-6.48,5.2-9.2,8.4-1.92.96-3.04,2.88-4.64,4.24s-3.6,2.24-4.56,4.24c-.8.24-1.36.96-1.92,1.52l-1.52,1.52c-1.12,1.12-1.84,2.64-3.52,3.12-.32,1.04-1.36,1.44-1.92,2.24.72.88,2.96.72,4.24.96,4.72.88,7.84.64,12.16-.88,5.76-1.6,6.16-2.96,12.08-5.92.96.48.16,1.68.56,2.72-1.12.56-2,3.12-3.84,3.44-1.12.32-1.6,1.12-2.72,1.52-6,2.24-4.88,1.76-10.96,3.36-4.72.72-9.12,0-13.76-.96-2.72.8-2.88,4.08-6.16,4.24-.64.32.08,1.92-1.2,1.52-.16.56-.56.96-.72,1.52-.72.88-1.68,1.44-1.52,3.12-2.72.4-2.72,3.44-5.04,4.24-.16,2.24-2.08,2.72-2.32,4.96-.56.16-.32,1.2-1.52.8-.16,1.2-.72,2.08-.72,3.44-2.64,2.32-3.68,6.32-5.76,9.2-.16,1.6-.88,2.48-1.6,3.44-2.48-.64-.96-3.12-.32-4.56.96-1.36.96-3.68,2.24-4.64.88-3.76,3.2-6.08,4.24-9.6,1.6-1.36,2.48-3.44,3.44-5.36,4-4.8,7.68-10,11.92-14.64-1.04-1.68-.48-4.56.4-6.48.64-2.08,1.76-3.68,2.24-5.84-1.28-.56-2.08.08-2.72.4-.72.32-1.04.24-1.52.72-.16.16-1.12.72-1.52,1.2-2.16.24-1.28.48-2.72,1.52-1.6.72-2.24,2.56-4,3.12-1.6.88-4.32,2.48-4.24,2.72Z"/>
        <path class="cls-2" d="M156.24,31.44c.16,0-4.72,5.28-4.8,5.28-1.12.48-14.4,6.72-14.56,7.2-1.36.24-2.48.96-3.44,1.92-2.08,1.04-4.8,2.56-7.12,4.08-.8.16-1.52.48-2.24.8-.16.96-2.16.32-2.4,1.2h-2.72c-1.44,0-2.88,0-4.24-.4-1.92-1.92-2.96-4.56-4.24-6.88-1.92,2.08-7.84,11.36-9.6,11.92.32,1.2-.8,1.52-.72,2.64-2.16,1.2-7.68,10.8-9.6,13.44-.48.16-.88.64-.8,1.2-1.04,1.6-2.48,2.88-3.44,4.56-2.16,3.6-10.56,17.68-15.04,17.68h-.32c-1.28-1.44-.72-5.04-.8-6.88.72-2.08,1.68-4,2-6.16.88-.56.16-2.24,1.12-2.72,0-.88.8-1.44.8-2.32l-.08-.72c1.04-.24.88-1.76,1.92-1.92-.16-1.12,2.56-6.4,3.52-6.88-.96-2.48,10.72-15.76,11.84-18.88.72-.4,6.88-6.64,6.96-6.88,1.36-1.68,10.56-10.24,12.24-10.4.72-2.16,14.88-10.4,17.68-10.4,2.56,0,3.76,1.76,5.36,3.52-.24.48.08,1.12.4,1.52v.32c0,.96-.4,1.84-.4,2.8l.4.72v.8c0,2.88-.56,5.68-1.12,8.4.16.16.4.24.56.24,1.76,0,17.84-7.76,20.24-8.96l2.64.16ZM107.84,37.36c-.8.64-1.2,1.52-2.32,1.52-.48,1.84-2.48,2.32-3.44,3.84-1.68.88-2.24,2.88-3.84,3.84-1.04.08-.72,1.6-1.52,1.92-.24,1.04-1.6,1.04-1.6,2.32-1.36.16-2.32,3.36-3.84,3.84-.08.16-5.6,8.16-6.08,8.8-.56,2-2.56,2.8-2.72,5.04-1.44,1.28-1.6,3.28-3.04,4.56v1.92c-1.2.8-1.44,2.4-2.32,3.44.16,1.84-.64,2.96-1.2,4.64.4,1.2-.48,1.12-.72,1.92-.16.08-.4.16-.4.32,0,.56.56.96.56,1.44,0,.24-.08.4-.16.56,1.36-.32,1.84-1.6,2.32-2.72,1.12-.72,1.92-1.76,2.24-3.04,1.68-1.12,2-3.44,3.52-4.64v-.72c.56-1.04,1.6-2.48,2.24-3.52l.8-.32c.32-.48-.24-1.68.8-1.6,1.44-2.4,3.44-4.48,4.96-6.88-.08-.72.48-1.28,1.12-1.52.48-.72.32-1.6.8-2.32h.8v-.8c2.96-3.52,5.12-8.8,8.8-11.52.08-1.52,1.6-2.08,1.92-3.44.96-1.36,3.92-5.44,3.92-7.04,0-.24-.08-.32-.48-.24-.32.24-.72.4-1.12.4ZM125.84,25.84c-.08.48-.56.72-.72,1.12-1.92-.24-2.4,1.6-4.24,1.52-.72,1.2-1.76,2.32-2.96,3.12-.32,2-2.64,5.84-3.76,7.68-.64.8-1.2,1.52-1.36,2.64,1.84,1.2,2.4,4.4,5.2,4.4,2.08,0,4.4-1.36,6.8-1.36-.08-.88,1.36-1.28,2-1.52,2.32-2.96,3.52-8.32,3.52-12,0-1.68-.24-3.36-.96-4.88-1.04-.4-2-.72-3.12-.72h-.4Z"/>
        <path class="cls-2" d="M178,45.6c-1.2,1.92-11.84,8.24-17.84,8.64-5.04.32-9.68-.88-12.72-2.96-1.84-.24-2.48-2.4-2.32-3.84-.32-1.6-.8-3.6-.32-5.44,0,0,.32-.16.32-.4.24-.8,1.52-4.64,2.48-5.04.4-1.12.8-2.32,1.92-2.72.88-2.16,3.04-3.12,4.16-4.96,2.16-.96,4.24-1.92,5.76-3.52,2.8.24,3.92-1.2,6.56-1.12,1.12.88,1.2,1.92,1.12,3.44,0,.64-.16.48-.32.8-.32.56-.16,1.92-.8,2.64,0,3.12-2.96,6.56-3.2,9.36-1.12.56-1.92,2.24-2.64,3.12-.72.88-1.84,1.2-2.32,2.24-1.84.64-2.8,2.08-4.64,2.72,1.2,1.04,3.12,1.52,4.24,1.84h.8c4.24-.24,10.56-2.88,13.92-5.36.72-.56,2.32-1.36,3.04-1.68.72-.24,2.24-1.04,3.04-1.04,0,.16,0,2.88-.24,3.28ZM159.84,29.6c-2.32,1.28-3.6,3.68-5.76,4.64-1.44,2.64-5.04,7.2-5.12,11.28,1.2.08,2.64-.56,3.12-.8.96-.56,1.52-.88,2.32-1.52,2.4-1.92,5.52-7.44,6.96-9.76.72-1.12,1.6-2.32,1.6-3.84-.08-.24-.08-.72-.4-.72-1.04.72-2.08.4-2.72.72Z"/>
        <path class="cls-2" d="M211.44,40.4c0-.08,1.04,3.04,1.04,3.04,0,0-2.8,2.96-2.88,2.8-4.16,2.64-8.08,6.08-13.44,7.28-2.56.24-5.44-.16-7.28-.4-.8-.08-1.04,0-1.92-.4-.16-.08,0-.32-.4-.4-1.04,0-1.6-1.44-2.32-2.32-.16-1.76.56-2.72.8-4.16,2.16-2.56,3.36-5.36,5.76-7.68-.16-1.68-.48-4-1.2-5.04-2.32.56-8.96,10.08-11.2,10.72,0,0-2.88-2.08-2.8-2,1.2-1.04,3.36-3.84,4.4-4.64,1.04-1.2,4.96-6.56,6.4-7.28.08-.88,2.64-2.48,3.28-3.04.4-.48.08-2,1.84-1.44,1.84.48,1.6,2.96,1.92,5.04.64.96.88,2.4,1.52,3.44-.32,1.84,1.2,2.64,1.2,4.24-.72,0-.56,1.12-.8,1.52-.32.48-.88.8-1.12,1.12-.88,2.24-2.24,3.12-3.44,5.04-.4,1.12-1.92,1.12-1.52,3.04,1.52.88,3.92,1.04,6.48.8,4.48-.48,8.56-4.08,11.6-6.32,1.2-1.04,4.08-2.88,4.08-2.96Z"/>
        <path class="cls-2" d="M225.2,49.36c-.16-.56-2.64.64-2.72,1.12-1.92,1.04-4.48,1.44-6.56,2.32-.4.88-1.12.16-1.92.4-.16.08-.96.72-1.12.8-2,.32-4.08-.08-5.76.32-.24-1.04-1.6-.96-1.52-2.24-.32-1.44-.08-2.8.24-3.52.72-1.52,2.72-4.8,4-5.76,2.48-2.08,5.28-6.96,7.92-8.88.24-.88,1.12-1.2,1.92-1.52.08-1.12,1.2-1.12,1.52-1.92.72-.48,1.28-1.04,1.92-1.6.72-.32.48-1.52,1.92-1.12,1.6-.16,1.04,1.76,1.92,2.32-.4,2.4-2.8,2.8-3.44,4.96-2,.72-2.4,3.12-3.92,4.24-2,.8-3.84,4.72-5.6,5.84-.96,1.68-3.12,2.24-3.44,4.64,1.6,1.04,4-.32,5.04-1.2,2.88-.24,5.12-1.52,7.28-2.64,2.08-1.12,4-2,6.08-3.2,1.6-.64,1.6-1.76,2.96-2.56,1.68-.48,3.28-1.92,5.28-2.08.88,2.48-.56,4.88-4.16,6.72-.56.8-1.84,1.2-2.48,1.92-1.04,1.2-4.48.96-5.36,2.64ZM241.28,4.4c.8,1.52,1.04,3.6,1.2,5.76-1.04,1.36-3.76.64-5.04,0-.08-3.28-.08-6.48,3.84-5.76Z"/>
        <path class="cls-2" d="M266.24,45.6c-1.2,1.92-11.84,8.24-17.84,8.64-5.04.32-9.68-.88-12.72-2.96-1.84-.24-2.48-2.4-2.32-3.84-.32-1.6-.8-3.6-.32-5.44,0,0,.32-.16.32-.4.24-.8,1.52-4.64,2.48-5.04.4-1.12.8-2.32,1.92-2.72.88-2.16,3.04-3.12,4.16-4.96,2.16-.96,4.24-1.92,5.76-3.52,2.8.24,3.92-1.2,6.56-1.12,1.12.88,1.2,1.92,1.12,3.44,0,.64-.16.48-.32.8-.32.56-.16,1.92-.8,2.64,0,3.12-2.96,6.56-3.2,9.36-1.12.56-1.92,2.24-2.64,3.12-.72.88-1.84,1.2-2.32,2.24-1.84.64-2.8,2.08-4.64,2.72,1.2,1.04,3.12,1.52,4.24,1.84h.8c4.24-.24,10.56-2.88,13.92-5.36.72-.56,2.32-1.36,3.04-1.68.72-.24,2.24-1.04,3.04-1.04,0,.16,0,2.88-.24,3.28ZM248.08,29.6c-2.32,1.28-3.6,3.68-5.76,4.64-1.44,2.64-5.04,7.2-5.12,11.28,1.2.08,2.64-.56,3.12-.8.96-.56,1.52-.88,2.32-1.52,2.4-1.92,5.52-7.44,6.96-9.76.72-1.12,1.6-2.32,1.6-3.84-.08-.24-.08-.72-.4-.72-1.04.72-2.08.4-2.72.72Z"/>
        <path class="cls-2" d="M303.44,46.32c-1.36.48-1.68,1.12-3.84,2.08-1.36,1.2-2.08.88-3.52,2-2.96,2.08-6.64,2.32-9.76,4.24-2.24.08-5.2,1.04-6.96-.8-.08-1.92.56-3.44,1.2-4.56.08-.16-.16-.72,0-.8.4-.32.08-.64.4-1.12.08-.24.56-.08.72-.4.4-.64.4-1.04.8-1.52.24-.4.8-.72,1.12-1.2.08-.08-.08-.64,0-.72.4-.32.48-.4.8-.8.8-1.12,3.28-5.84,4.24-7.6-3.2,1.12-10.16,6.32-12.56,8.48-.72.72-1.92,1.52-2.4,2.4-1.76,1.12-2.32,3.2-4,4.4-1.28.08-1.12,1.68-2.32,1.92-.8.56-1.44,1.36-2.32,1.92-2-.24-2.48,1.04-3.52-.4-.16-1.92.88-2.64,1.52-3.84,1.04-.72,1.6-2,2.32-3.04,1.2-2.32,4.48-6.8,5.44-9.52.32-1.36,1.76-8.08,2.16-9.04.56-1.36,1.44-1.2,3.36-.88,1.36,1.28,0,8.32-.96,9.92.56.24,0,.4,0,.8h-.4c.24,1.12.64-.56,1.2-.4.72,0,.24-1.04,1.28-.72.4-1.04,1.52-1.36,1.92-2.32.88.24,1.2-.4,1.92-.8,1.04-.56,1.92-1.04,3.04-1.92.4-.24.8-.88,1.2-1.12,1.84-1.28,4.8-2.24,6.56-3.84,1.36-.64,4.64-2.24,6.56-1.2,1.12,2.48-.32,4.88-1.92,5.76.16,1.52-1.6,1.2-1.52,2.72-1.12.16-.88,1.68-1.92,1.92-.56,2.16-3.36,6.16-4.64,7.52-.48,1.04-.96,1.92-1.6,2.72-1.12.16-.72,1.84-1.52,2.32.64,1.04,1.44-.88,2.32-.8.8-.32,2.08.24,2.72-.32,1.04-.08,1.04-.48,1.92-.72,4.16-1.76,5.44-1.44,8.88-3.92,1.68-.64,1.52-.48,2.88-1.44.96-.64,1.44-1.2,2-1.76.64-.24,1.76-1.2,2.32-1.44,1.52-.8,2.72-2.08,5.04-2.16.4,3.76-.48,5.28-1.68,5.36-.72,0-2,.48-2.08.8-1.6,1.36-4.64,3.04-6.4,3.84Z"/>
        <path class="cls-2" d="M353.68,42.4c-.56,1.84-4.8,4.72-6.72,5.12-1.12.64-2.48,1.36-3.68,1.92-.16.08-.64.88-.72.88-.8.24-2.08.32-2.32,1.44-1.6-.48-1.52.8-2.72.72-1.28.88-3.28,1.04-4.4,2.16-.64.24-2.24-.48-2.24.4-.24.64-1.84-.08-1.92.72-2.88-.16-4.88.4-6.96,1.04-3.2-.08-6.56.16-9.2-.4-1.2-.88-2.16-1.92-3.84-2.32-.24-1.12-.48-2.32-1.52-2.72.08-2.56-.48-2.24-.24-4.96.16-1.6,1.52-3.84,1.84-5.44,2.16-2.32,3.68-5.28,6.08-7.28,4.32-4.24,9.76-9.2,18.48-7.68,1.76,2.56,2.48,6.16,3.44,9.6-.8-.08-.16,1.36-.4,1.92-1.04.96-2.96,3.12-5.36,1.12.08-.64-.16-1.28,0-1.92.24-1.28,1.68-2.08,1.52-4.24,0-.8-.4-1.28-.72-2.24-1.76-1.2-3.68-1.52-5.76-.4q.4.8-.4.4c-.8-.4-.56.64-.8.72-.24.16-.8-.08-1.12,0-.48.32-.96,1.12-1.92.8-.24.56-1.04.72-1.52,1.12-.32.32-.24,1.84-1.52,1.2,0,1.28-.88,1.68-1.6,2.32-.4,1.92-2.72,2-3.04,4.16-.96.24-1.36.96-1.92,1.52-.8,3.12-2.72,3.52-1.6,7.36.8,2.16,2.88,3.04,4.96,3.84,4.24-.24,8.88-.08,11.92-1.52,1.2-.48,2.8-.56,3.84-1.12,2.72-.64,4.56-2.72,7.28-3.36,2.16-1.2,4.56-2.4,6.96-3.28,2.16-1.12,3.84-3.36,6.24-4.24,1.36-.8,2.64-.8,1.6,2.64Z"/>
        <path class="cls-2" d="M382.79,45.6c-1.2,1.92-11.84,8.24-17.84,8.64-5.04.32-9.68-.88-12.72-2.96-1.84-.24-2.48-2.4-2.32-3.84-.32-1.6-.8-3.6-.32-5.44,0,0,.32-.16.32-.4.24-.8,1.52-4.64,2.48-5.04.4-1.12.8-2.32,1.92-2.72.88-2.16,3.04-3.12,4.16-4.96,2.16-.96,4.24-1.92,5.76-3.52,2.8.24,3.92-1.2,6.56-1.12,1.12.88,1.2,1.92,1.12,3.44,0,.64-.16.48-.32.8-.32.56-.16,1.92-.8,2.64,0,3.12-2.96,6.56-3.2,9.36-1.12.56-1.92,2.24-2.64,3.12-.72.88-1.84,1.2-2.32,2.24-1.84.64-2.8,2.08-4.64,2.72,1.2,1.04,3.12,1.52,4.24,1.84h.8c4.24-.24,10.56-2.88,13.92-5.36.72-.56,2.32-1.36,3.04-1.68.72-.24,2.24-1.04,3.04-1.04,0,.16,0,2.88-.24,3.28ZM364.63,29.6c-2.32,1.28-3.6,3.68-5.76,4.64-1.44,2.64-5.04,7.2-5.12,11.28,1.2.08,2.64-.56,3.12-.8.96-.56,1.52-.88,2.32-1.52,2.4-1.92,5.52-7.44,6.96-9.76.72-1.12,1.6-2.32,1.6-3.84-.08-.24-.08-.72-.4-.72-1.04.72-2.08.4-2.72.72Z"/>
      </g>
      <g>
        <path d="M361.96,69.81c-8.4-1.07-16.82-2.64-25.25-3.47-29.18-2.88-63.43-3.1-92.35,1.63-13.13,2.15-27.12,5.75-38.66,12.31l-1.18-.84c.94-4.75.1-6.53-3.91-9.02-16.57-10.28-64.77-4.37-83.03,2.26-4.52,1.64-5.26,5.5-9.66,8.3-2.77,1.76-12.84,6.22-11.95-.41.57-4.22,12.21-8.07,15.97-9.27.34-2.69-2.95-3.96-5.08-4.6-22.16-6.61-83.59,5.16-98.16,24.51l-2.24,3.49c.59-4.23,4.14-7.39,7.26-9.93,19.65-15.98,60.1-25.14,84.98-22.39,3.71.41,11.6,1.57,14.22,4.26.81.83,1.46,3.03,1.61,3.12.93.58,18.41-4.12,21.42-4.66,16.72-3.01,49.92-6.4,65.03,1.48,3.71,1.94,5.48,4.57,7.26,8.21,10.11-4.47,20.81-7.67,31.7-9.7,32.94-6.16,72.13-4.68,105.11.92,4.8.81,10.51,1.65,15.16,2.83.69.18,1.56,0,1.75.99ZM109.46,75.79l-4.18,1.56-5.82,3.41c3.64-.22,7.47-2.39,10-4.96Z"/>
        <path class="cls-1" d="M109.46,75.79c-2.53,2.58-6.35,4.75-10,4.96l5.82-3.41,4.18-1.56Z"/>
      </g>
    </g>
  </g>
</svg>