<?xml version="1.0" encoding="UTF-8"?>
<svg id="_レイヤー_2" data-name="レイヤー 2" xmlns="http://www.w3.org/2000/svg" viewBox="0 0 355.07 112.46">
  <defs>
    <style>
      .cls-1 {
        fill: #fff;
      }

      .cls-2 {
        fill: #be6763;
      }
    </style>
  </defs>
  <g id="text">
    <g>
      <g>
        <path class="cls-2" d="M104.32,2.32c-1.28,2.56-2.8,4.88-4.64,6.88-1.44,2.4-3.2,4.48-4.96,6.56,0,1.2-1.12,1.44-.8,3.04-.96,0-.96,1.04-1.52,1.52-.32.72-.64,1.44-.72,2.32-.96,1.12-1.12,3.04-2.32,3.84-.08,1.2-.4,2.16-.8,3.04-1.36,2.16-1.68,5.28-3.44,6.96.32,1.28-.56,1.44-.4,2.64-.96,1.12-1.52,2.72-2.32,4.24-.88,1.68-1.76,4.88-3.44,6.56-.48,2.32-1.52,4.08-2.32,6.16-.88,1.76-1.12,4.16-2.64,5.36-.24,2.16-.88,4.16-1.52,6.16-.08.24-.72.88-.8,1.12-.48,1.28-.24,3.12-1.52,4.24.8.96-.4,2.4-.8,3.44.24,2.24-.64,3.44-.4,5.76-1.36.4-3.28.96-4.56.4.32-5.12-1.36-8.08-1.92-12.32-2.16-2.48-3.52-5.76-5.36-8.4-.88-.8-1.36-2-2.72-2.32-.08-.88-.96-1.68-1.52-2.32-.8-.88-1.76-1.44-2.72-2.32-.64-.64-2.4-1.84-3.04-3.04-2.08-.16-2.64-1.76-3.84-2.72-3.12-.64-6.96-2.56-10.8-2.32-2.4.16-4.32,1.28-6.08,2.32-1.92,1.36-2.72,3.76-4.24,5.36-.32,1.76-.48,2.88,0,5.04.4,2.08.96,3.52,1.92,5.36.48.96,1.12,1.84,1.52,2.72.8.48,1.6.96,1.92,1.92.8-.16,1.2.08,1.12.72,1.44,0,1.92.96,3.12,1.2.8.4,2.48.08,2.64,1.12.4,1.76-2.08.72-2.64,1.52-1.84-.24-2.64-1.44-4.64-1.52-.08-.64-.64-.88-1.52-.8.08-1.44-1.12-1.68-2.32-1.92-.32-1.2-1.12-1.92-1.92-2.64-.32-1.2-1.12-2-1.92-2.72-.16-2.24-.72-4.16-1.52-5.76.72-1.12-.08-3.84.8-4.96.88-2.88,3.12-4.56,4.56-6.96,1.68-.96,3.44-1.92,5.04-3.04,5.84-1.12,11.04.64,15.68,1.92.96,1.52,2.48,2.4,4.24,3.04.96,1.44,2.56,2.4,4.24,3.12.16,1.28,1.44,1.36,1.92,2.32,1.12.16.88,1.6,1.92,1.92.88.48,1.28,1.52,2.32,1.92-.08,1.28,1.28,1.2,1.52,2.24.88.56.88,1.92,1.92,2.32.08,1.2,1.44,1.12,1.52,2.32,1.36,1.28,2,3.44,3.44,4.64,1.44.16.56-2,1.6-2.32.72-2.8,2.32-4.88,2.64-8.08,1.2-.4.72-2.56,1.92-3.04,1.44-4.08,3.36-8,5.04-11.92,1.6-4,3.04-7.84,5.36-11.12.96-4.16,2.8-7.52,4.24-11.2-.16-.48-.72,0-.8.4-.48.16-.64.72-1.12.8-1.04,1.92-3.28,2.8-4.64,4.56-.4.48-.32,1.44-.8,1.92-.8,1.12-2.16,2.08-3.04,3.12-.24.24-.56.48-.8.72-.16.32-.08.88-.32,1.2-.4.4-1.2.72-1.6,1.12-.96,1.12-1.84,2.32-2.64,3.44-.16.24-.64.56-.8.8-.32.56-.64,1.2-1.12,1.92-.16.24-.4-.08-.4.4,0,.32-1.04,1.36-1.52,1.92-1.12,1.28-2.4,3.12-3.44,4.96-1.68.88-4.16,1.44-4.64-1.12,0-1.76,2.32-1.28,3.04-2.32,1.76-4.56,5.12-7.52,8.08-11.12.96-1.12,1.68-2.4,2.72-3.44,1.12-.56,1.6-1.76,2.32-2.72.88-.8,2-1.28,2.24-2.72.88-.72,1.76-1.6,2.72-2.24-.32-.88.8-1.12,1.12-1.6.8-.8,1.76-1.6,2.72-2.64.32-.4.32-1.52,1.12-1.2,1.04-1.12,1.92-2.24,3.12-3.44.16-.16.56-.16.72-.4.4-.32.32-1.52,1.2-1.12.4-2.64,3.2-3.28,4.24-5.76.56-.96,1.6-1.76,2.24-2.72.72-.88,1.52-1.84,1.92-3.04.32-.24.64-.4,1.2-.4.16-.32.4-.64.4-1.12,1.76,0,2.32,1.28,3.04,2.32Z"/>
        <path class="cls-2" d="M124.48,67.04c-1.92.88-2.8,1.92-4.08,2.56-.8.4-2.16,1.6-3.44,2-.24,0-1.44.56-1.68.72-.48.16-.56.48-1.52.72-.48.16-1.92.64-2.64.8-1.2.32.08-.24-1.6.16-.8.16-1.52.32-2.32.8-1.68-.72-4.56-.32-6.88-.4-.48-.8-1.68-.88-2.72-1.2-.96-1.6-3.04-3.04-3.44-5.76-.32-2,.24-4,.8-6.08.96-2,1.52-5.52,2.64-6.56,1.92-3.12,3.2-6.88,5.44-9.6-.56-.64-1.92-.56-3.12-.4-.88.16-2.8.56-4.56.8-2.48.24-5.76,1.44-6.56-1.2-.16-1.52,2-.8,2.72-1.52.72-.64,2.48-.32,3.04-1.12,4-.24,7.68-.8,11.52-1.2.64-.08,1.2-.72,1.52-1.12.24-.32.16-.8.4-1.12.56-.72,2.24-2,3.04-3.12,1.6-1.92,2.8-4.08,4.24-6.16,1.36-.96,1.2-3.36,3.84-3.04,1.6,0,.32,2.72,1.2,3.44-1.92,3.76-5.28,6-6.56,10.4.16.8,1.92.16,2.72.4,8.88-.8,18.32-1.2,27.2-1.92.96.48,2.32,1.12,1.36,2.32-2,.16-3.68.4-3.6.32-2.24-.08-3.68.64-6.16.4-1.68.96-3.2.32-5.36,1.12-1.52.08-2.88,0-3.84-.32-2.64,1.2-2.8-.08-5.44.72q-1.12.32-2.24,0c-.72.32-1.44.64-2.32.8-.96.16-2.88-1.6-4.24,0,.08.8-1.36.16-1.92.4-.88,2.24-2.96,3.36-3.84,5.76-1.92,1.36-1.76,3.68-3.84,4.96.08,1.04-1.04,1.52-1.52,2.32-.56.8-.56,2.08-1.52,2.64-.48,3.04-1.76,5.52-.4,8.48.88.64,1.44,1.28,2.32,1.52.32.08.24.32.32.4,2.56,1.2,6.08,0,8.88-.4,1.2-.32,3.12-.64,4.4-1.76.08-.08,2.16-1.12,2.24-1.12.64-.32,1.12-.88,1.84-1.2.64-.24,1.68-.24,2.32-.4.4-.88,1.84-.64,2.96-.8,1.2.96-.32,1.68.4,2.56Z"/>
        <path class="cls-2" d="M128.8,42.72c-.16-1.12.88-2,1.52-2.72,1.68-1.84,4.08-3.76,6.16-5.76.48-1.28.72-2.88,1.52-3.84-.56-1.2-.32-2.08-1.52-2.72-.4-.96-.96-1.84-.8-3.44,2.32-2.96,5.76.72,6.88,3.12-.24,3.2-1.2,5.68-2.24,8-1.6,1.2-2.88,2.56-3.84,4.24-1.68.4-1.92,2.16-3.84,2.32-.32,1.76-2.8,1.84-3.84.8Z"/>
        <path class="cls-2" d="M175.6,68.24c0-1.52,0-3.76-.16-3.76,3.2-.88,6.96-4.8,9.68-6.24,3.36-2.16,7.92-6.24,11.52-8.08,1.92-1.12,3.6-2.48,5.44-3.6,1.6-.96,3.2-2.4,5.36-2.64.4.64.96,1.28,1.52,1.92.4,1.36-.64,2.48-1.12,3.44-.8,1.52-1.76,2.88-2.72,4.32-.08.16.16.64,0,.72-.72.64-4.32,7.28-4.72,8.8-1.04.96-2.32,1.76-2.64,3.44.88,1.12,2.24-.56,3.84,0,3.36-.8,6.96-1.76,10.32-2.64,3.84-1.76,7.92-3.52,11.44-5.6,0,1.68.32,3.76-.24,3.28-.88.32-2.08,1.68-2.88,2-.24.08-.96.72-1.2.72-.48.16-.72.16-1.12.4-1.28.56-1.84,1.44-2.88,2-.4.24-.8.32-1.2.4-.8.32-1.76.8-2.64,1.04-.88.24-1.12.48-2.32.8-1.04.24-3.84.88-5.36,1.84-4.32.48-9.04,2.72-13.84,2.24-1.52-.08-2.96-1.04-4.64-1.12-1.04-1.04-2.16-2.16-3.84-2.72-.4-1.04-.4-2.24,0-3.28-1.2-.32-1.2.56-1.92.72-.24.56-1.44.08-1.52.8-.96.56-2.16,1.12-2.16.8ZM193.52,64.64c1.2-1.04,4.8-5.6,5.04-7.52,1.04-.4,1.36-3.12,2.32-3.52-.08-.88.08-1.44.8-1.52-.08-.48-.16-.96-.8-.8-.08.56-.64.64-.72,1.12-2.8.72-3.2,3.68-6.08,4.32-1.84,1.68-7.92,6.32-10.16,7.68,1.92,1.6,3.12,3.68,6.48,3.28,1.52-.56,2.48-1.6,3.12-3.04Z"/>
        <path class="cls-2" d="M306.4,67.68c-3.92.96-4.32,2.72-8.16,3.76-3.36.72-7.92,3.04-11.52,1.12-2.08-1.92-.72-5.68-.4-8.4.8-.16.4-1.44,1.2-1.6.08-.64-.4-1.92.72-1.52-.24-1.76.64-2.48,1.2-3.44.56-.88.8-2.24,1.52-3.04.56-1.04,1.36-1.76,1.52-3.12-2.24.08-3.04,1.92-4.64,3.12-3.2,2.4-5.44,5.76-8.4,8.8-.96.96-1.92,1.92-3.12,2.72-1.36,2.48-3.2,4.4-4.96,6.48-2.16-.48-2.32,1.04-4.24.8-.24-1.12-1.36-1.92,0-2.72.16-1.12.24-2.32,1.2-2.64.88-1.84,2.08-3.28,2.64-5.44,1.44-1.2,1.84-3.6,3.12-4.96.32-2.24,1.12-4,1.52-6.16-1.68-.88-3.44,1.12-4.64,1.92-1.52.72-2.72,1.84-3.84,3.12-1.68.72-2.72,2.08-3.84,3.44-1.92.32-2.08,2.48-4.24,2.64-1.6,2-3.2,4-5.36,5.44.08.72-.8,1.12-1.12,1.52-.4.48-.4,1.44-1.2,1.52-.32,1.44-1.68,1.92-2.24,3.04-2.16-.32-3.92,1.12-5.04-.32.08-.4,0-.8,0-1.2.08-.72.24-.96.8-1.52,1.84-1.92,2.48-5.84,4.24-8.48.64-2,1.92-3.44,2.64-5.36.48-.88.96-1.68,1.04-2.48.48-2.24,1.12-3.28,2.08-7.04.72-1.76-1.52-.48-1.2-1.92-.32-1.84,1.68-1.44,1.6-3.04,1.36-.16,1.12-1.92,1.92-2.72.08-.4.72-.24.72-.72h.8c3.76,1.28,1.84,7.84-.4,10,0,.88-.4,1.84-.4,2.72-.64,1.28-.48,1.28-.88,2.72.16,1.12-1.04,2.24-1.04,4,.24.96,1.04-.72,1.92-.32.32-.72,1.44-.64,1.52-1.6,1.6-.4,2.64-1.44,3.44-2.64,1.44-.64,2.64-1.52,3.84-2.32,1.12-.96,2.8-1.36,3.52-2.72,3.44-.48,4.88-3.04,8.4-3.44,2.8,2.48.8,7.2.4,10.8.08.88,1.04-.48,1.52-.4.24-.56.64-.96,1.2-1.2.48-1.12,1.68-1.6,2.64-2.24,1.36-1.92,3.92-2.48,5.04-4.64,2.96-.88,4.48-3.2,7.28-4.24,2.96,1.6,1.68,6.4,0,8.48-1.04,4.08-3.84,6.4-5.04,10.32-.72,1.76-1.68,3.44-1.52,6.16,2.96,1.36,4.96-1.36,7.68-1.52.4-.24.4-.88,1.2-.8.48-.48,1.28-.48,1.92-.72,1.36-.64,1.84-.64,3.44-1.6,2-1.12,1.44-2.24,3.76-2.96,2.16-1.76,8.32-9.04,7.2-.8-2.24,1.36-6.32,6.4-8.96,7.36Z"/>
        <path class="cls-2" d="M343.36,64.48c-1.2,1.92-11.84,8.24-17.84,8.64-5.04.32-9.68-.88-12.72-2.96-1.84-.24-2.48-2.4-2.32-3.84-.32-1.6-.8-3.6-.32-5.44,0,0,.32-.16.32-.4.24-.8,1.52-4.64,2.48-5.04.4-1.12.8-2.32,1.92-2.72.88-2.16,3.04-3.12,4.16-4.96,2.16-.96,4.24-1.92,5.76-3.52,2.8.24,3.92-1.2,6.56-1.12,1.12.88,1.2,1.92,1.12,3.44,0,.64-.16.48-.32.8-.32.56-.16,1.92-.8,2.64,0,3.12-2.96,6.56-3.2,9.36-1.12.56-1.92,2.24-2.64,3.12-.72.88-1.84,1.2-2.32,2.24-1.84.64-2.8,2.08-4.64,2.72,1.2,1.04,3.12,1.52,4.24,1.84h.8c4.24-.24,10.56-2.88,13.92-5.36.72-.56,2.32-1.36,3.04-1.68.72-.24,2.24-1.04,3.04-1.04,0,.16,0,2.88-.24,3.28ZM325.2,48.48c-2.32,1.28-3.6,3.68-5.76,4.64-1.44,2.64-5.04,7.2-5.12,11.28,1.2.08,2.64-.56,3.12-.8.96-.56,1.52-.88,2.32-1.52,2.4-1.92,5.52-7.44,6.96-9.76.72-1.12,1.6-2.32,1.6-3.84-.08-.24-.08-.72-.4-.72-1.04.72-2.08.4-2.72.72Z"/>
      </g>
      <g>
        <path d="M355.07,87.59c-8.39-1.07-16.8-2.64-25.22-3.47-29.14-2.88-63.36-3.1-92.24,1.63-13.11,2.15-27.08,5.75-38.61,12.31l-1.18-.84c.94-4.75.1-6.53-3.9-9.02-16.55-10.28-64.69-4.37-82.93,2.26-4.51,1.64-5.26,5.5-9.65,8.3-2.77,1.76-12.83,6.22-11.93-.41.57-4.22,12.19-8.07,15.95-9.27.34-2.69-2.94-3.96-5.08-4.6-22.13-6.61-83.49,5.16-98.04,24.51l-2.23,3.49c.59-4.23,4.13-7.39,7.25-9.93,19.62-15.98,60.03-25.14,84.88-22.39,3.7.41,11.58,1.57,14.2,4.26.81.83,1.46,3.03,1.61,3.12.93.58,18.39-4.12,21.39-4.66,16.7-3.01,49.86-6.4,64.95,1.48,3.71,1.94,5.47,4.57,7.25,8.21,10.1-4.47,20.78-7.67,31.66-9.7,32.9-6.16,72.05-4.68,104.98.92,4.79.81,10.5,1.65,15.14,2.83.69.18,1.55,0,1.75.99ZM102.87,93.57l-4.17,1.56-5.81,3.41c3.64-.22,7.46-2.39,9.99-4.96Z"/>
        <path class="cls-1" d="M102.87,93.57c-2.52,2.58-6.35,4.75-9.99,4.96l5.81-3.41,4.17-1.56Z"/>
      </g>
    </g>
  </g>
</svg>