<?xml version="1.0" encoding="UTF-8"?>
<svg id="_レイヤー_2" data-name="レイヤー 2" xmlns="http://www.w3.org/2000/svg" viewBox="0 0 355.07 99.69">
  <defs>
    <style>
      .cls-1 {
        fill: #fff;
      }

      .cls-2 {
        fill: #be6763;
      }
    </style>
  </defs>
  <g id="text">
    <g>
      <g>
        <path class="cls-2" d="M142.92,57.31c-.23-.54-1.38,1-1.85,1.08-.38.85-1.85.69-2.23,1.54-7.15,4.46-20.23,6.15-29.92,3.31-2.46-.77-4.62-2.15-7-2.23-1.31-1.31-3.15-2-4.77-2.92-.69-1-1.46-1.77-2.23-2.62-1-1.62-1.31-3.85-1.08-6.61,1.23-1.54,3.15-2.31,5.15-3,.92.62,3.15.08,4.08.77,1.31.08,2.85,0,2.92,1.46-.31,1.77-1.77.92-2.92.77-1.23-.23-2.31-.92-3.38-.77-1.23-.31-.62,1.38-1.46,1.46-.38.62-1.15.77-1.08,1.85.54,3.62,3.92,4.46,6.23,6.31,2.23,0,3.38,1.08,5.23,1.46.77.54,1.62.46,2.54.77.08,0,.15.31.38.31,1.38.38,4.08.69,6.31.77.54,0,1.23.08,1.85,0,1.38-.23,3.62,0,6.23,0,1.69-.31,2.85-1.15,4.85-1.08,3.08-1.69,6.38-3.23,9.23-5.23.92-1,1.69-2.15,2.92-2.92,0-1.23.54-1.92,1.08-2.62.62-2.92.31-5.85-.31-8.46-1-1.15-1.54-2.62-2.62-3.69-.54-1.54-2.15-2.08-2.62-3.69-2-.85-3.46-2.15-4.77-3.69-.92.08-1.77.08-2.23-.38-.69-.85-1.77-1.38-2.23-2.54h-2.54c-.92-1.23-2.85-1.38-3.69-2.62-1.38.46-2.08-.38-3-.77-1.69-.62-2.92-1.15-4.77-1.85-.77-.23-1.77-.38-2.62-.69-.23-.08-.85-.69-1.08-.77-1-.38-2.62-.62-4.08-1.08-.15-.08-.92-.69-1.08-.77-.92-.23-1.31,0-2.23-.38-.38-.08-.85-.46-1.46-.69-.31-1.77.31-2.62.69-3.69,4.15-.54,7.23-2.23,11.46-2.62,2.85-1.77,8.31-1.08,11.46-2.54,3.46-.23,6.85-.54,9.62-1.54,1.85.38,3.85-.31,5.92-.31.77-.08,1.31.31,2.15.31,1.62.08,3.31-.38,4.85-.31.85,0,2.15.15,3.31.31.92.15,2.23.23,2.92.38.23.08.62.69.77.77.31.08.85-.15,1.08,0,.77.38,1.69,2.15,2.62,2.92-.15,1.15.69,1.31.38,2.62,0,.85-.69,1.08-.38,2.23-.92-.08-1,1-1.46,1.46-.31.23-.85.15-1.15.38-.23.15-.38.46-.69.69-1.08.85-2.15,1.54-3.31,2.23-.54.54-2.62.69-2.62-.38-.23-1.23.62-1.31,1.46-1.46.54-.46.54-1.46,1.46-1.46.31-.77,1-1,1.85-1.15-.15-1.15,1-.92,1.15-1.85-.85-2.92-4.77-2.85-7-4.38-.85-.23-.54.69-1.15.69-.08-.46-.92-.31-1.46-.31-4.77-.69-11.08.38-16.23,1.08-4.23.62-8.23,1.38-12.23,1.85-2.62.85-5.15,1.77-8.08,2.23,0,.92,1.23.54,1.85,1.08.31.31,2.31.85,3.31,1.15,2.23,1.46,4.85,2.15,7.38,3.31,2.31,1,4.69,2.38,7.38,2.92.38,1.15,1.77,1.38,2.62,1.85.15.08.23.69.31.77.31.15.85-.15,1.15,0,.15.08.23.69.38.69,1.54.77,3.69,2.23,5.15,3.69,1.15.69,1.77,2,3.31,2.23,0,2.38,2.46,2.23,2.23,4.85.15.38.46.69,1.08.69,0,.62.31,1,.77,1.15.08,2.62,1,5.38.69,8.08-.15,1.54-.85,3.31-1.46,4.85,0,2.15-1.62,3.23-3.31,4.77Z"/>
        <path class="cls-2" d="M226.22,0c2.85,0,2.31,2.46,3.31,2.54.08.62.08,1.23.08,1.77,0,3.46-1.08,5.85-1.15,9.31-.08.08-2.54,4.85-2.31,4.85-1.15,0-.15,2.15-1.38,2.15-.38.77-.46,1.77-.77,2.62-1.23.92-1.85,2.62-2.92,3.69v.23c0,1.08-1.46.85-1.46,1.77s-.77,1.08-.77,2.08c-1.69.08-1.62,2.08-3.31,2.23-.62,1.62-2.69,3.62-4,4.62-1.92,2.62-7.54,6.08-8.08,7.61-1.46.46-1.69,2.08-3,2.62-.77,1.23-2.31,1.62-2.92,2.92-.62.15-2.62,2.46-2.62,2.85v.15c-.15,0-.23-.08-.38-.08-1.08,0-1.54,1.85-2.54,1.92-.92,0-2,1.62-3,2.23-3.46.92-5.46,3.38-9.92,3.38-2.62,0-2.77-1.62-4.08-2.69v-.62c0-.92-.46-1.62-.46-2.54,0-3.62.92-6.38,1.23-9.77.92-1.46,1.46-3.38,1.46-5.92.85-.77.69-2.69,1.46-3.69.31-1.23.92-2.23,1.46-3.31-.15-.08-.31-.15-.46-.15-1.08,0-5.15,4.61-7.31,7.54-1.23.85-2,1.92-3.31,3-1.54,1.31-1.31,1.38-1.85,2.15-.54.69-2.54,2.31-2.54,2.23-1.46,3-4.92,5.77-7.08,9.61-2.92,1.92-3.54,5.61-5.85,5.92-.54.23-1.23.69-1.85.69-.92,0-.92-.85-.92-1.46,0-2.23,1.85-4.23,3.08-5.54h.15c.85,0,.23-1.38,1-1.46.08-.54,2.23-1.62,2.23-2.31,0-.08-.08-.31-.08-.46,0-.08,0-.15.08-.15,1.92-1.62,3.77-4.69,5.85-6.69.69-1.08,1.77-1.69,2.62-2.54.62-1,1.38-1.85,2.23-2.62.46-1.23,1.85-1.62,2.23-2.92,1.46-1.15,2.38-2.77,3.69-4.08.62-.69,1.54-.77,2.15-1.46,2.92-2.92,9.08-11.54,11.85-11.85.92.46,1.77,1.77,1.77,2.92,0,.77-.31,1.46-1,1.85-.15,2.38-1.31,3.69-1.85,5.54-1,1.62-1.62,3.46-2.23,5.23-.62,1.69-1.54,3.31-1.46,5.38,0,.31.08.69.08.85,0,.69-1.23,0-1.23.77-.15,4.15-2.15,7.61-2.15,11.61,0,1.38-.23,3.15,2,3.15,1.54,0,3.46-1.85,3.85-1.85.69,0,2.62-1.69,3.69-2.23.54-.31,1.38-.46,1.85-.77.62-.31,1.31-1.69,3-2.15.77-.31,1.31-2.31,2-2.31.15,0,.38.08.46.08.54,0,7.62-6.85,8.23-7.38,3.77-3.77,8.31-7.77,12.08-11.54,2.69-2.77,4.23-6.61,7-9.23,1.08-3.54,2.46-5.92,3.38-8.54.08-.31.62-.46.69-.69.31-.85-.15-2.31.77-3v-.77c0-.77-.08-1.54-.08-2.31,0-.85.08-1.62.46-2.08-.23-1.15-1.15-1.46-1.15-2.92Z"/>
        <path class="cls-2" d="M271.07,57.31c-.23-.54-1.38,1-1.85,1.08-.38.85-1.85.69-2.23,1.54-7.15,4.46-20.23,6.15-29.92,3.31-2.46-.77-4.62-2.15-7-2.23-1.31-1.31-3.15-2-4.77-2.92-.69-1-1.46-1.77-2.23-2.62-1-1.62-1.31-3.85-1.08-6.61,1.23-1.54,3.15-2.31,5.15-3,.92.62,3.15.08,4.08.77,1.31.08,2.85,0,2.92,1.46-.31,1.77-1.77.92-2.92.77-1.23-.23-2.31-.92-3.38-.77-1.23-.31-.62,1.38-1.46,1.46-.38.62-1.15.77-1.08,1.85.54,3.62,3.92,4.46,6.23,6.31,2.23,0,3.38,1.08,5.23,1.46.77.54,1.62.46,2.54.77.08,0,.15.31.38.31,1.38.38,4.08.69,6.31.77.54,0,1.23.08,1.85,0,1.38-.23,3.62,0,6.23,0,1.69-.31,2.85-1.15,4.85-1.08,3.08-1.69,6.38-3.23,9.23-5.23.92-1,1.69-2.15,2.92-2.92,0-1.23.54-1.92,1.08-2.62.62-2.92.31-5.85-.31-8.46-1-1.15-1.54-2.62-2.62-3.69-.54-1.54-2.15-2.08-2.62-3.69-2-.85-3.46-2.15-4.77-3.69-.92.08-1.77.08-2.23-.38-.69-.85-1.77-1.38-2.23-2.54h-2.54c-.92-1.23-2.85-1.38-3.69-2.62-1.38.46-2.08-.38-3-.77-1.69-.62-2.92-1.15-4.77-1.85-.77-.23-1.77-.38-2.62-.69-.23-.08-.85-.69-1.08-.77-1-.38-2.62-.62-4.08-1.08-.15-.08-.92-.69-1.08-.77-.92-.23-1.31,0-2.23-.38-.38-.08-.85-.46-1.46-.69-.31-1.77.31-2.62.69-3.69,4.15-.54,7.23-2.23,11.46-2.62,2.85-1.77,8.31-1.08,11.46-2.54,3.46-.23,6.85-.54,9.62-1.54,1.85.38,3.85-.31,5.92-.31.77-.08,1.31.31,2.15.31,1.62.08,3.31-.38,4.85-.31.85,0,2.15.15,3.31.31.92.15,2.23.23,2.92.38.23.08.62.69.77.77.31.08.85-.15,1.08,0,.77.38,1.69,2.15,2.62,2.92-.15,1.15.69,1.31.38,2.62,0,.85-.69,1.08-.38,2.23-.92-.08-1,1-1.46,1.46-.31.23-.85.15-1.15.38-.23.15-.38.46-.69.69-1.08.85-2.15,1.54-3.31,2.23-.54.54-2.62.69-2.62-.38-.23-1.23.62-1.31,1.46-1.46.54-.46.54-1.46,1.46-1.46.31-.77,1-1,1.85-1.15-.15-1.15,1-.92,1.15-1.85-.85-2.92-4.77-2.85-7-4.38-.85-.23-.54.69-1.15.69-.08-.46-.92-.31-1.46-.31-4.77-.69-11.08.38-16.23,1.08-4.23.62-8.23,1.38-12.23,1.85-2.62.85-5.15,1.77-8.08,2.23,0,.92,1.23.54,1.85,1.08.31.31,2.31.85,3.31,1.15,2.23,1.46,4.85,2.15,7.38,3.31,2.31,1,4.69,2.38,7.38,2.92.38,1.15,1.77,1.38,2.62,1.85.15.08.23.69.31.77.31.15.85-.15,1.15,0,.15.08.23.69.38.69,1.54.77,3.69,2.23,5.15,3.69,1.15.69,1.77,2,3.31,2.23,0,2.38,2.46,2.23,2.23,4.85.15.38.46.69,1.08.69,0,.62.31,1,.77,1.15.08,2.62,1,5.38.69,8.08-.15,1.54-.85,3.31-1.46,4.85,0,2.15-1.62,3.23-3.31,4.77Z"/>
      </g>
      <g>
        <path d="M355.07,74.81c-8.39-1.07-16.8-2.64-25.22-3.47-29.14-2.88-63.36-3.1-92.24,1.63-13.11,2.15-27.08,5.75-38.61,12.31l-1.18-.84c.94-4.75.1-6.53-3.9-9.02-16.55-10.28-64.69-4.37-82.93,2.26-4.51,1.64-5.26,5.5-9.65,8.3-2.77,1.76-12.83,6.22-11.93-.41.57-4.22,12.19-8.07,15.95-9.27.34-2.69-2.94-3.96-5.08-4.6-22.13-6.61-83.49,5.16-98.04,24.51l-2.23,3.49c.59-4.23,4.13-7.39,7.25-9.93,19.62-15.98,60.03-25.14,84.88-22.39,3.7.41,11.58,1.57,14.2,4.26.81.83,1.46,3.03,1.61,3.12.93.58,18.39-4.12,21.39-4.66,16.7-3.01,49.86-6.4,64.95,1.48,3.71,1.94,5.47,4.57,7.25,8.21,10.1-4.47,20.78-7.67,31.66-9.7,32.9-6.16,72.05-4.68,104.98.92,4.79.81,10.5,1.65,15.14,2.83.69.18,1.55,0,1.75.99ZM102.87,80.79l-4.17,1.56-5.81,3.41c3.64-.22,7.46-2.39,9.99-4.96Z"/>
        <path class="cls-1" d="M102.87,80.79c-2.52,2.58-6.35,4.75-9.99,4.96l5.81-3.41,4.17-1.56Z"/>
      </g>
    </g>
  </g>
</svg>