<?xml version="1.0" encoding="UTF-8"?>
<svg id="_レイヤー_2" data-name="レイヤー 2" xmlns="http://www.w3.org/2000/svg" viewBox="0 0 355.5 109.58">
  <defs>
    <style>
      .cls-1 {
        fill: #fff;
      }

      .cls-2 {
        fill: #be6763;
      }
    </style>
  </defs>
  <g id="text">
    <g>
      <g>
        <path class="cls-2" d="M158.47,0c2.56.4,2,4,1.2,5.76-.16,3.36-.4,4.72-1.44,9.52-.8,2.56-1.36,4.96-2.24,7.28-.08.16-.4,0-.4.4-.08,1.12-.64.64-.8,1.92-.16,1.44-1.04,2.72-1.12,4.64-1.6.8-1.36,3.52-3.12,4.16-.24,2.16-1.76,3.12-2.24,5.04-2.24,2-2.16,3.12-4.16,5.28-2,2.16-4.4,3.84-6.16,6.16-1.28.8-2.56,1.6-3.84,2.32-.64,1.44-1.84,2.24-3.12,3.04-.96.08-.4,1.68-1.92,1.12-.64.4-.72,1.28-1.52,1.6-.8,1.2-2.56,1.52-3.04,3.04-5.44,2.4-8.88,6.8-17.28,6.16-.88-.56-2.08-.8-3.12-1.2-.88-1.12-1.68-2.32-2.64-3.44-.48-1.28-.16-3.44-.8-4.56.64-2.24.48-3.12.8-5.36-2.56.32-3.04,2.8-5.04,3.76-2.08,1.28-3.6,3.2-5.76,4.64-1.12.8-2.48,1.6-3.84,2.72-.88.72-1.68,1.36-2.64,2.24-.48.48-1.12.72-1.92,1.2-1.12.64-3.36,1.68-5.36,2.32-2.48.16-4.56-.16-6.16-.8-1.04-1.92-2.08-4-2.32-6.48-.32-3.76,1.52-8.24,1.52-12.32.96-1.92,1.92-3.76,2.32-6.16,1.12-.72,1.36-2.24,2.32-3.04.16-1.6.88-2.72,1.92-3.52,1.04-2.4,2.8-4.24,4.24-6.48.32-.56.32-1.28.72-1.92.88-1.36,2.48-2.88,3.44-4.64.8-1.04,1.68-1.92,2.72-2.64.24-1.6,1.44-2.16,3.44-1.92,1.84,1.36.72,3.84-.72,4.96-1.44,1.12-1.92,3.2-3.84,3.84-.08,1.44-1.2,1.84-1.6,3.12-.64.4-1.12,1.2-1.52,1.92-.4.64-.72,1.2-1.12,1.92-.8,1.28-1.92,2.64-2.32,4.16-1.44,1.52-2.48,3.44-3.44,5.44-.96,1.92-1.68,4.16-2.72,6.08.56,1.6-.48,2.72-.72,3.84-.24.8.16,1.68,0,2.32-.16.32-1.12.4-.8,1.2.4,2.8-.32,5.2,1.92,7.28,6.32-.8,10.16-4.96,14.56-8.08.32-.24.72-.72,1.2-.8.56,0,.96-1.04,1.52-1.52.16-.08.64.16.8,0,.24-.32.4-.48.72-.72.4-.4,2.24-1.44,2.32-2.32,0-.64,2.72-1.04,2.72-2.72,1.12-.64,2.48-1.84,3.04-3.44,1.36-.8,2-2.32,3.04-3.44.4-1.6.8-3.04,1.2-4.64.88-2.16,2.24-3.92,2.64-6.48,3.04-1.2,2.08-6.16,5.44-6.16,2.72,0,2.8,2.48,1.92,4.56-.08.24-.4,0-.4.4-.08.56-.24.72-.4,1.2-1.2,2.8-2.24,4.8-2.72,7.28-.72.32-1.04,1.2-1.52,1.92-.24.32-.56.48-.72.72-.32.32-.16.8-.4,1.2-.8,1.28-1.68,2.56-2.32,4.16-1.2,3.2-1.44,6.96-2.32,10.8.16,1.36,1.04,2.08.8,3.84.64.32,1.2.88,1.52,1.52.56,0,1.12-.08,1.12.4,6.48.24,9.2-3.12,13.44-4.96,1.52-1.36,3.04-2.64,4.64-3.84,3.2-2.32,6-5.04,8.8-7.76,1.12-.24,1.6-1.28,2.72-1.52.24-.96,1.36-1.12,1.52-2.24,1.6.08,1.2-1.68,2.32-1.92.4-1.04,1.52-1.36,1.92-2.32,1.12-1.52,1.2-1.04,1.84-3.04,1.52-1.2,2.08-3.36,3.12-4.96,1.28-1.44,2.32-3.44,2.72-5.04.96-2.24,1.28-4.08,2.24-5.76,0-1.04.56-2.08.8-3.04.24-1.04.16-1.84.72-2.72.56-1.6,1.12-2.56,1.04-4.64.56-2.32.72-4.8,1.12-8.64.16-.56.72-.64.8-1.2h.72Z"/>
        <path class="cls-2" d="M154.7,46.4c.32-.16,1.04-1.04,1.92-1.52,2.32-.32,3.28-2,5.36-2.64,1.28-.96,2-2.4,3.12-3.52,2.16-.32,3.52-1.52,6.08-1.52,1.28.96,4,2,3.92,4.24.64,1.36.72,2.88.96,4.16.08.16.48.32,1.12.16,1.12-.24.08.08,1.2-.32,1.36-.56,3.28-.24,3.28-.16.08.64-1.52,3.04-1.92,3.36-.16.08-.48.16-1.12.4-1.28.48-.48.08-1.68.56-1.28.48-1.44.64-1.44.72-.96,3.12-3.04,4.56-4.64,6.88-.48.48-2.48,1.6-2.24,2.32-.96.16-.64.88-1.6,1.92-2.72,2.24-5.76,4.16-9.2,5.76-2.72.56-6.56.16-8.48-.4-1.04-1.68-.8-4.64-.8-7.28.4-.88.72-1.92,1.2-2.72.16-.32.96-.48,1.12-.8.32-.48.16-1.04.4-1.52.96-1.68,1.28-3.52,2.64-4.8.32-.88.64-2.16.8-3.28ZM158.95,51.04c-.96.08-1.12.96-1.52,1.52-1.6,2-2.72,4.48-4.24,6.16,0,1.68-1.12,2.24-.8,4.24h3.92c.8-.08,3.6-1.68,3.84-1.92.32-.32.32-.16.8-.4,1.2-.72,1.92-2.08,3.44-2.32.72-.88,1.44-1.84,2.32-2.64.8-.88,1.6-1.68,2.64-2.32.56-.96,1.2-.96,1.2-2.24-1.28.8-3.84.96-5.44,1.04-.56-.48-1.68-.32-2.72-.32-1.04-.64-1.76-1.6-3.04-1.92-.08.48-.56.48-.4,1.12ZM168.55,43.36c-.48.96-1.6,1.28-2.72,1.52-.24.8-2.16,1.92-1.12,2.72.08-.64.56,0,.4.72,2.32.16,5.52-.32,6.96-1.12-.16-1.52.32-3.68-.4-4.64-.48,0-2.16-.48-2.72-.32-.08.48-.56.48-.4,1.12Z"/>
        <path class="cls-2" d="M217.43,53.28c0-.08,1.04,3.04,1.04,3.04,0,0-2.8,2.96-2.88,2.8-4.16,2.64-8.08,6.08-13.44,7.28-2.56.24-5.44-.16-7.28-.4-.8-.08-1.04,0-1.92-.4-.16-.08,0-.32-.4-.4-1.04,0-1.6-1.44-2.32-2.32-.16-1.76.56-2.72.8-4.16,2.16-2.56,3.36-5.36,5.76-7.68-.16-1.68-.48-4-1.2-5.04-2.32.56-8.96,10.08-11.2,10.72,0,0-2.88-2.08-2.8-2,1.2-1.04,3.36-3.84,4.4-4.64,1.04-1.2,4.96-6.56,6.4-7.28.08-.88,2.64-2.48,3.28-3.04.4-.48.08-2,1.84-1.44,1.84.48,1.6,2.96,1.92,5.04.64.96.88,2.4,1.52,3.44-.32,1.84,1.2,2.64,1.2,4.24-.72,0-.56,1.12-.8,1.52-.32.48-.88.8-1.12,1.12-.88,2.24-2.24,3.12-3.44,5.04-.4,1.12-1.92,1.12-1.52,3.04,1.52.88,3.92,1.04,6.48.8,4.48-.48,8.56-4.08,11.6-6.32,1.2-1.04,4.08-2.88,4.08-2.96Z"/>
        <path class="cls-2" d="M245.42,64.72c-2.72.88-5.84,1.36-8.48,2.32h-.64c-4.8,0-7.6-3.28-10-5.52-.32-1.68-1.2-3.2-1.2-4,0-1.36.56-2.24.8-3.36-3.12,1.44-3.04,2.48-6.48,5.68-1.12,2.08-4.16,3.76-5.52,6-1.28,2.08-2.4,2.32-3.6,4.96-.16,0-.32-.08-.48-.08-1.12,0-1.92.88-2.8.88-1.04,0-1.52-1.2-1.52-1.92,0-2.8,4-6.48,5.36-7.68.16-1.2.48-.48,1.04-1.28,2.08-2.88,2.72-5.12,4.8-6.48-.08-.24-.08-.4-.08-.56,0-1.2,1.2-1.12,1.2-2.32v-.24c1.92-1.12,1.12-2.4,3.12-3.44,0-1.68,1.76-1.2,1.92-2.72.64,0,.32-1.12.96-1.12h.16c.16-.56.88-.4.88-1.04,0-.16,0-.24-.08-.48,2.08-.64,2.8-2.64,4.24-3.84,2.4-2.48,4.16-5.44,6.88-7.68.32-.32,1.6-.96,1.6-1.36,0-.16-.08-.4-.08-.48,0-.24,1.12-.4,1.52-.88.48-.4.8-1.04,1.2-1.52,1.76-.4,3.84-3.68,6.16-5.76,0,0,1.28-1.52,2.24-1.52,2-3.2,5.68-4.64,7.68-7.68,1.52-.56,2.48-1.68,3.84-2.32,1.12-.8,1.68-2.72,3.84-2.72.96,0,.88.64,1.92,1.2-.08,1.92-1.68,2.4-2.64,3.44-2.24,3.2-8.08,7.84-8.08,9.2h-1.12c-3.04,0-2.56,2.48-4.64,2.48-.24,0-.48-.08-.8-.16-.48.48-.16,1.76-.72,2.32-2.32.72-3.12,3.04-5.04,4.16-2.08,2.4-4.64,4.32-6.88,6.56-.24,1.12-1.2,1.68-1.92,2.32-1.52,1.36-2.56,3.68-4.64,4.24-1.6,2.4-3.2,4.88-5.36,6.88-.96.56-2.32,2.64-2.32,2.72,4-2.48,7.84-4.96,11.2-7.36,1.12-.8,2-2.16,3.84-2.24.8-.16.72-1.04,1.52-1.6.56-.4,1.6-.32,2.32-.72,2.24-1.28,5.44-3.52,10.08-3.52,1.92,0,3.76.56,3.76,3.6,0,1.92-.64,3.92-1.2,5.28-1.12,1.04-2.64,1.68-3.44,3.04h-.32c-1.04,0-1.6.96-2.4,1.2-.8.32-1.76.4-2.64.72-.4.16-.72.64-1.2.8-1.44.56-3.84,1.12-6.48,1.92-2.4.72-6.72,1.2-6.96,4.64.16,3.6,3.84,5.6,5.84,5.6,7.68,0,17.84-6.24,22.8-10.8,2.4-1.12,3.76-2.32,5.44-4.16,1.36.16,2,1.52,2.48,2.4-.48,3.12-10.48,9.04-16.32,12.08-.96,1.2-2.8,1.68-4.56,1.92ZM247.42,40.4c-3.68,1.84-7.6,3.68-11.12,5.76-2.32.96-4.4,2.8-6.16,4.56,7.44-1.68,20-4.56,20-10-.32-.24-.88-.32-1.52-.32h-1.2Z"/>
        <path class="cls-2" d="M250.94,62.24c0-1.52,0-3.76-.16-3.76,3.2-.88,6.96-4.8,9.68-6.24,3.36-2.16,7.92-6.24,11.52-8.08,1.92-1.12,3.6-2.48,5.44-3.6,1.6-.96,3.2-2.4,5.36-2.64.4.64.96,1.28,1.52,1.92.4,1.36-.64,2.48-1.12,3.44-.8,1.52-1.76,2.88-2.72,4.32-.08.16.16.64,0,.72-.72.64-4.32,7.28-4.72,8.8-1.04.96-2.32,1.76-2.64,3.44.88,1.12,2.24-.56,3.84,0,3.36-.8,6.96-1.76,10.32-2.64,3.84-1.76,7.92-3.52,11.44-5.6,0,1.68.32,3.76-.24,3.28-.88.32-2.08,1.68-2.88,2-.24.08-.96.72-1.2.72-.48.16-.72.16-1.12.4-1.28.56-1.84,1.44-2.88,2-.4.24-.8.32-1.2.4-.8.32-1.76.8-2.64,1.04s-1.12.48-2.32.8c-1.04.24-3.84.88-5.36,1.84-4.32.48-9.04,2.72-13.84,2.24-1.52-.08-2.96-1.04-4.64-1.12-1.04-1.04-2.16-2.16-3.84-2.72-.4-1.04-.4-2.24,0-3.28-1.2-.32-1.2.56-1.92.72-.24.56-1.44.08-1.52.8-.96.56-2.16,1.12-2.16.8ZM268.86,58.64c1.2-1.04,4.8-5.6,5.04-7.52,1.04-.4,1.36-3.12,2.32-3.52-.08-.88.08-1.44.8-1.52-.08-.48-.16-.96-.8-.8-.08.56-.64.64-.72,1.12-2.8.72-3.2,3.68-6.08,4.32-1.84,1.68-7.92,6.32-10.16,7.68,1.92,1.6,3.12,3.68,6.48,3.28,1.52-.56,2.48-1.6,3.12-3.04Z"/>
      </g>
      <g>
        <path d="M355.5,84.7c-8.4-1.07-16.82-2.64-25.25-3.47-29.18-2.88-63.43-3.1-92.35,1.63-13.13,2.15-27.12,5.75-38.66,12.31l-1.18-.84c.94-4.75.1-6.53-3.91-9.02-16.57-10.28-64.77-4.37-83.03,2.26-4.52,1.64-5.26,5.5-9.66,8.3-2.77,1.76-12.84,6.22-11.95-.41.57-4.22,12.21-8.07,15.97-9.27.34-2.69-2.95-3.96-5.08-4.6-22.16-6.61-83.59,5.16-98.16,24.51l-2.24,3.49c.59-4.23,4.14-7.39,7.26-9.93,19.65-15.98,60.1-25.14,84.98-22.39,3.71.41,11.6,1.57,14.22,4.26.81.83,1.46,3.03,1.61,3.12.93.58,18.41-4.12,21.42-4.66,16.72-3.01,49.92-6.4,65.03,1.48,3.71,1.94,5.48,4.57,7.26,8.21,10.11-4.47,20.81-7.67,31.7-9.7,32.94-6.16,72.13-4.68,105.11.92,4.8.81,10.51,1.65,15.16,2.83.69.18,1.56,0,1.75.99ZM103,90.68l-4.18,1.56-5.82,3.41c3.64-.22,7.47-2.39,10-4.96Z"/>
        <path class="cls-1" d="M103,90.68c-2.53,2.58-6.35,4.75-10,4.96l5.82-3.41,4.18-1.56Z"/>
      </g>
    </g>
  </g>
</svg>